<?xml version="1.0" standalone="no"?>
<!DOCTYPE svg PUBLIC "-//W3C//DTD SVG 20010904//EN"
 "http://www.w3.org/TR/2001/REC-SVG-20010904/DTD/svg10.dtd">
<svg version="1.0" xmlns="http://www.w3.org/2000/svg"
 width="500.000000pt" height="500.000000pt" viewBox="0 0 500.000000 500.000000"
 preserveAspectRatio="xMidYMid meet">
<metadata>
Created by potrace 1.14, written by Peter Selinger 2001-2017
</metadata>
<g transform="translate(0.000000,500.000000) scale(0.100000,-0.100000)"
fill="#000000" stroke="none">
<path d="M590 2545 l0 -1465 875 0 875 0 0 1465 0 1465 -875 0 -875 0 0 -1465z
m1037 733 c5 -7 49 -114 98 -238 48 -124 175 -445 281 -713 107 -269 194 -493
194 -498 0 -5 -75 -9 -174 -9 -172 0 -175 0 -182 23 -3 12 -24 68 -46 125
l-40 102 -290 -2 -291 -3 -46 -122 -46 -123 -177 0 -178 0 19 48 c245 614 562
1405 566 1412 10 15 300 13 312 -2z"/>
<path d="M1443 2818 c-17 -68 -58 -196 -90 -284 l-60 -159 175 -3 c96 -1 177
-1 179 1 2 2 -14 51 -36 108 -58 154 -99 285 -119 379 l-18 83 -31 -125z"/>
<path d="M2600 2545 l0 -1465 930 0 930 0 0 1465 0 1465 -930 0 -930 0 0
-1465z m727 240 c90 -275 170 -527 179 -560 9 -33 18 -67 21 -75 3 -8 13 17
23 55 10 39 82 266 161 505 78 239 152 467 165 505 l22 70 236 3 236 2 0 -735
0 -735 -170 0 -170 0 -1 478 0 477 -30 -100 c-17 -55 -76 -242 -131 -415 -55
-173 -109 -343 -120 -377 l-19 -63 -199 0 c-197 0 -199 0 -205 23 -4 12 -66
207 -137 432 -72 226 -135 427 -142 448 -8 30 -10 -69 -7 -432 l3 -471 -176 0
-176 0 0 728 c0 401 3 732 7 736 4 3 110 5 237 4 l230 -3 163 -500z"/>
</g>
</svg>
