<svg xmlns="http://www.w3.org/2000/svg" xmlns:xlink="http://www.w3.org/1999/xlink" width="608" height="490"><defs><linearGradient id="a" x1=".431" y1="-.367" x2=".704" y2="2.383" gradientUnits="objectBoundingBox"><stop offset="0" stop-color="#010101" stop-opacity="0"/><stop offset=".95" stop-color="#010101"/></linearGradient><linearGradient id="d" x1=".559" y1="-.228" x2=".289" y2="3.097" xlink:href="#a"/><linearGradient id="e" x1=".323" y1=".217" x2="1.083" y2="1.432" xlink:href="#a"/><linearGradient id="f" x1=".135" y1=".659" x2="1.477" y2=".075" xlink:href="#a"/><linearGradient id="g" x1=".338" y1=".154" x2=".711" y2="2.093" xlink:href="#a"/><linearGradient id="h" x1=".516" y1="-.083" x2=".201" y2="1.576" xlink:href="#a"/><linearGradient id="b" x1=".483" y1=".223" x2=".393" y2="1.255" gradientUnits="objectBoundingBox"><stop offset="0" stop-color="#fff" stop-opacity="0"/><stop offset=".95" stop-color="#fff"/></linearGradient><linearGradient id="i" x1=".483" y1=".224" x2=".393" y2="1.254" gradientUnits="objectBoundingBox"><stop offset="0" stop-color="#fff" stop-opacity="0"/><stop offset=".66" stop-color="#fff"/></linearGradient><linearGradient id="j" x1=".504" y1="-.016" x2=".414" y2="1.015" xlink:href="#b"/><linearGradient id="k" x1=".483" y1=".224" x2=".393" y2="1.255" gradientUnits="objectBoundingBox"><stop offset="0" stop-color="#fff" stop-opacity="0"/><stop offset=".38" stop-color="#fff" stop-opacity=".671"/><stop offset=".95" stop-color="#fff"/></linearGradient><linearGradient id="l" x1=".483" y1=".224" x2=".393" y2="1.255" gradientUnits="objectBoundingBox"><stop offset="0" stop-color="#fff" stop-opacity="0"/><stop offset=".58" stop-color="#fff"/></linearGradient><linearGradient id="m" x1=".483" y1=".224" x2=".393" y2="1.254" gradientUnits="objectBoundingBox"><stop offset="0" stop-color="#fff" stop-opacity="0"/><stop offset=".53" stop-color="#fff"/></linearGradient><linearGradient id="n" x1=".431" y1="-.369" x2=".704" y2="2.385" xlink:href="#a"/><linearGradient id="o" x1=".559" y1="-.228" x2=".289" y2="3.098" xlink:href="#b"/><linearGradient id="p" x1=".431" y1="-.37" x2=".704" y2="2.385" xlink:href="#a"/><linearGradient id="q" x1=".431" y1="-.369" x2=".704" y2="2.385" xlink:href="#a"/><linearGradient id="r" x1=".431" y1="-.369" x2=".704" y2="2.385" xlink:href="#a"/><linearGradient id="s" x1=".559" y1="-.228" x2=".289" y2="3.098" xlink:href="#b"/><linearGradient id="t" x1=".431" y1="-.369" x2=".704" y2="2.385" xlink:href="#a"/><linearGradient id="u" x1=".559" y1="-.228" x2=".289" y2="3.099" xlink:href="#b"/><filter id="c" x="0" y="0" width="608" height="490" filterUnits="userSpaceOnUse"><feOffset dy="3"/><feGaussianBlur stdDeviation="3" result="blur"/><feFlood flood-color="#223242" flood-opacity=".502"/><feComposite operator="in" in2="blur"/><feComposite in="SourceGraphic"/></filter></defs><g data-name="ether_(crypto_currency)" transform="translate(8.959 5.999)"><g transform="translate(-8.96 -6)" filter="url(#c)" style="isolation:isolate"><path data-name="Контур 1322" d="M337.904 6.173c-90.238 2.546-175.95 37.694-259.345 72.314C54.13 88.638 27.545 100.8 16.662 124.93-1.022 164.157 32.75 208.054 30.487 251c-1.422 26.2-16.218 49.877-20.334 75.78-7.285 45.58 20.841 91.441 59.806 116.071s86.66 31.2 132.717 31.167 92.048-6.085 138.072-4.315c52.016 2.05 104.4 14.1 155.626 4.844s102.77-49.41 101.046-101.5c-1.078-32.721-22.629-62.076-23.944-94.786-1.821-46.066 30.173-84.85 24.946-132.135-3.491-31.772-18.869-70.922-44.494-91.7C504.629 14.533 396.794 4.511 337.904 6.173z" fill="#68e1fd" opacity=".5"/></g><path data-name="Контур 1323" d="M350.399 339.088l-68.352-39.507 53.481-30.909-38.352-22.17-34.117 19.721-104.537-60.425 62.08-35.882 2.468 1.424-59.623 34.469 99.591 57.566 34.117-19.721 43.3 25.029-53.481 30.909 63.406 36.648 79.3-45.829 44.224 25.557-35.962 20.789 42.059 24.317 19.063-11.015 2.478 1.424-21.52 12.439-47-27.176 35.959-20.778-39.289-22.709z" fill="#68e1fd"/><path data-name="Контур 1324" d="M443.006 417.67l-85.432-49.378 55.324-31.977-76.24-44.07-52.576 27.176-77.554-44.836 35.5-20.519-35.8-20.692-25.97 15.017-2.478-1.435 28.427-16.431 40.744 23.551-35.5 20.519 72.747 42.05 52.576-27.176 81.046 46.854-55.322 31.969 82.964 47.965z" fill="#68e1fd"/><path data-name="Контур 1325" d="M106.323 274.229l-43-24.845 2.457-1.424 40.518 23.421 35.27-20.39 194.854 112.628 44.957-25.978 51.488 29.765 28.513-16.487 2.468 1.435-30.959 17.9-51.5-29.765-44.956 25.98-194.84-112.63z" fill="#68e1fd"/><path data-name="Контур 1326" d="M181.464 216.319l-2.468-1.435 35.108-20.293 59.149 34.188 31.121-17.984 106.312 61.448-2.457 1.413-103.833-60.015-31.121 17.984-59.149-34.188z" fill="#68e1fd"/><path data-name="Контур 1327" d="M284.051 289.148a7.56 7.56 0 010 2.783c-.69 2.158-3.567 2.589-5.862 2.632a158.377 158.377 0 00-38.739 5.556c-3.028.82-6.272 1.9-8.071 4.488s-1 7.045 2.069 7.7a62.137 62.137 0 00-12.931 3 4.73 4.73 0 00-2.78 1.856c-1.325 2.395 1.778 4.8 4.386 5.631 10.442 3.377 21.552 3.506 32.576 3.614 5.216 0 11.347-.367 14.2-4.747.894-1.381 1.39-3.1 2.651-4.164a8.184 8.184 0 012.963-1.37l16.552-5.081a18.548 18.548 0 016.229-1.154c2.457.129 4.741 1.219 7.026 2.158a51.541 51.541 0 0025.711 3.237c2.058 4.315 4.31 8.954 8.362 11.576 3.308 2.158 7.36 2.654 11.272 3.129 8.621 1.079 17.392 2.061 25.862.162 3.567-.8 7.543-2.74 8.06-6.365.571-4.154-3.739-7.153-7.468-9.084l-7.543-3.938a8.622 8.622 0 01-3.6-2.783c-1.66-2.686.108-6.268 2.511-8.329a15.554 15.554 0 016.692-3.334c3.675-.82 7.543-.259 11.272-.421s7.856-1.327 9.914-4.5a2.16 2.16 0 00.431-1.543 2.362 2.362 0 00-1.078-1.316c-8.33-5.837-19.17-6.268-29.332-6.473l-46.789-.993c-7.716-.162-15.474-.086-23.179-.485-5.957-.364-11.82.877-11.367 8.558z" fill="#68e1fd" opacity=".24" style="isolation:isolate"/><ellipse data-name="Эллипс 183" cx="9.677" cy="16.735" rx="9.677" ry="16.735" transform="rotate(-89.71 273.059 34.783)" fill="#f29c5a"/><ellipse data-name="Эллипс 184" cx="9.677" cy="16.735" rx="9.677" ry="16.735" transform="rotate(-89.71 271.532 33.264)" fill="#ffc91f"/><ellipse data-name="Эллипс 185" cx="7.509" cy="12.996" rx="7.509" ry="12.996" transform="rotate(-89.71 272.17 30.225)" fill="#f29c5a"/><ellipse data-name="Эллипс 186" cx="9.677" cy="16.735" rx="9.677" ry="16.735" transform="rotate(-89.71 267.997 33.994)" fill="#f29c5a"/><ellipse data-name="Эллипс 187" cx="9.677" cy="16.735" rx="9.677" ry="16.735" transform="rotate(-89.71 266.47 32.476)" fill="#ffc91f"/><ellipse data-name="Эллипс 188" cx="7.509" cy="12.996" rx="7.509" ry="12.996" transform="rotate(-89.71 267.109 29.435)" fill="#f29c5a"/><ellipse data-name="Эллипс 189" cx="9.677" cy="16.735" rx="9.677" ry="16.735" transform="rotate(-89.71 266.836 25.916)" fill="#f29c5a"/><ellipse data-name="Эллипс 190" cx="9.677" cy="16.735" rx="9.677" ry="16.735" transform="rotate(-89.71 265.31 24.408)" fill="#ffc91f"/><ellipse data-name="Эллипс 191" cx="7.509" cy="12.996" rx="7.509" ry="12.996" transform="rotate(-89.71 265.954 21.363)" fill="#f29c5a"/><ellipse data-name="Эллипс 192" cx="9.677" cy="16.735" rx="9.677" ry="16.735" transform="rotate(-89.427 332.767 -36.202)" fill="#f29c5a"/><ellipse data-name="Эллипс 193" cx="9.677" cy="16.735" rx="9.677" ry="16.735" transform="rotate(-89.71 328.962 -36.542)" fill="#ffc91f"/><ellipse data-name="Эллипс 194" cx="7.509" cy="12.996" rx="7.509" ry="12.996" transform="rotate(-89.71 329.6 -39.582)" fill="#f29c5a"/><ellipse data-name="Эллипс 195" cx="9.677" cy="16.735" rx="9.677" ry="16.735" transform="rotate(-89.427 332.991 -43.076)" fill="#f29c5a"/><ellipse data-name="Эллипс 196" cx="9.677" cy="16.735" rx="9.677" ry="16.735" transform="rotate(-89.71 329.207 -43.362)" fill="#ffc91f"/><ellipse data-name="Эллипс 197" cx="7.509" cy="12.996" rx="7.509" ry="12.996" transform="rotate(-89.71 329.85 -46.408)" fill="#f29c5a"/><ellipse data-name="Эллипс 198" cx="9.677" cy="16.735" rx="9.677" ry="16.735" transform="rotate(-89.427 324.584 -45.24)" fill="#f29c5a"/><ellipse data-name="Эллипс 199" cx="9.677" cy="16.735" rx="9.677" ry="16.735" transform="rotate(-89.71 320.865 -45.53)" fill="#ffc91f"/><ellipse data-name="Эллипс 200" cx="7.509" cy="12.996" rx="7.509" ry="12.996" transform="rotate(-89.71 321.503 -48.57)" fill="#f29c5a"/><ellipse data-name="Эллипс 201" cx="9.677" cy="16.735" rx="9.677" ry="16.735" transform="rotate(-89.71 253.702 .776)" fill="#f29c5a"/><ellipse data-name="Эллипс 202" cx="9.677" cy="16.735" rx="9.677" ry="16.735" transform="rotate(-89.71 252.186 -.742)" fill="#ffc91f"/><ellipse data-name="Эллипс 203" cx="7.509" cy="12.996" rx="7.509" ry="12.996" transform="rotate(-89.71 252.824 -3.782)" fill="#f29c5a"/><ellipse data-name="Эллипс 204" cx="9.677" cy="16.735" rx="9.677" ry="16.735" transform="rotate(-89.71 335.53 -4.945)" fill="#f29c5a"/><ellipse data-name="Эллипс 205" cx="9.677" cy="16.735" rx="9.677" ry="16.735" transform="rotate(-89.71 334.015 -6.464)" fill="#ffc91f"/><ellipse data-name="Эллипс 206" cx="7.509" cy="12.996" rx="7.509" ry="12.996" transform="rotate(-89.71 334.653 -9.504)" fill="#f29c5a"/><path data-name="Контур 1328" d="M346.368 298.825c-12.877 7.444-33.826 7.4-46.789-.086-6.466-3.744-9.7-8.631-9.763-13.539 0-1.845.517-27.64.334-26.755-.647 3.236 5.259 15.568 9.278 13.248 12.877-7.444 33.826-7.412 46.789.086 3.233 1.888 7.974-14.154 9.6-11.867 0 0-.3 21.717 0 23.529.939 5.535-2.207 11.188-9.449 15.384z" fill="#68e1fd"/><path data-name="Контур 1329" d="M340.522 287.842c-12.877 7.444-33.826 7.4-46.789-.086-6.466-3.744-9.7-8.631-9.763-13.539 0-1.845.517-27.64.334-26.755-.647 3.236 5.259 15.568 9.278 13.248 12.877-7.444 33.826-7.412 46.789.086 3.233 1.888 7.974-14.154 9.6-11.867 0 0-.3 21.717 0 23.529.939 5.535-2.207 11.188-9.449 15.384z" transform="translate(5.846 10.983)" fill="url(#a)"/><ellipse data-name="Эллипс 207" cx="19.127" cy="33.082" rx="19.127" ry="33.082" transform="rotate(-89.71 285.447 -5.693)" fill="#68e1fd"/><path data-name="Контур 1330" d="M355.958 275.124c.3 5.092-2.9 10.26-9.6 14.143-12.931 7.433-33.826 7.39-46.789-.076-6.778-3.916-10.011-9.084-9.7-14.219.409 4.607 3.653 9.127 9.7 12.6 12.931 7.552 33.9 7.552 46.789.108 5.99-3.505 9.223-7.993 9.6-12.556z" fill="#68e1fd"/><ellipse data-name="Эллипс 208" cx="14.747" cy="25.517" rx="14.747" ry="25.517" transform="rotate(-89.71 287.027 -11.915)" fill="url(#d)"/><path data-name="Контур 1331" d="M323.997 126.968l-34.203 62.91h18.556z" fill="#68e1fd"/><path data-name="Контур 1332" d="M323.383 251.723l-33.589-61.849h18.556z" fill="#68e1fd"/><path data-name="Контур 1333" d="M357.673 190.144l-33.672-63.176-15.65 62.91z" fill="#68e1fd"/><path data-name="Контур 1334" d="M323.383 251.723l34.289-61.58-49.321-.269z" fill="#68e1fd"/><path data-name="Контур 1335" d="M303.133 117.69L268.93 180.6h18.556z" transform="translate(20.864 9.278)" fill="url(#e)"/><path data-name="Контур 1336" d="M302.519 237.849L268.93 176h18.556z" transform="translate(20.864 13.874)" fill="url(#f)"/><path data-name="Контур 1337" d="M335.472 180.866L301.8 117.69l-15.65 62.91z" transform="translate(22.201 9.278)" fill="url(#g)"/><path data-name="Контур 1338" d="M301.182 237.849l34.289-61.58L286.15 176z" transform="translate(22.201 13.874)" fill="url(#h)"/><path data-name="Контур 1339" d="M288.353 259.9L231.79 101.311 404.669 89.67l-50.884 179.442s-43.859 30.963-65.432-9.212z" transform="translate(1.797 -1.454)" fill="url(#b)"/><path data-name="Контур 1340" d="M463.762 332.532L437.9 259.894l79.182-5.394-23.362 82.239s-20.076 14.187-29.958-4.207z" transform="translate(17.79 11.54)" fill="url(#i)"/><path data-name="Контур 1341" d="M408.986 386l-25.916-72.606L462.262 308l-23.319 82.2s-20.086 14.2-29.957-4.2z" transform="translate(13.536 15.757)" fill="url(#j)"/><path data-name="Контур 1342" d="M166.682 233.881l-25.862-72.627L220 155.86l-23.319 82.2s-20.106 14.226-29.999-4.179z" transform="translate(-5.262 3.764)" fill="url(#k)"/><path data-name="Контур 1343" d="M212.446 163.082L186.53 90.444l79.192-5.394-23.319 82.2s-20.086 14.226-29.957-4.168z" transform="translate(-1.715 -1.818)" fill="url(#l)"/><path data-name="Контур 1344" d="M60.552 234.431L34.69 161.8l79.192-5.394-23.373 82.243s-20.086 14.187-29.957-4.218z" transform="translate(-13.497 3.807)" fill="url(#m)"/><path data-name="Контур 1345" d="M509.02 362.52c-5.991 3.463-15.744 3.441-21.767 0-3.017-1.737-4.526-4.024-4.537-6.3 0-.852.237-12.849.151-12.439-.3 1.51 2.446 7.239 4.31 6.16 5.991-3.463 15.733-3.441 21.757 0 1.519.874 3.707-6.581 4.472-5.5 0 0-.151 10.1 0 10.939.442 2.555-1.024 5.187-4.386 7.14z" fill="#68e1fd"/><path data-name="Контур 1346" d="M489.284 345.3c-5.991 3.463-15.744 3.441-21.767 0-3.017-1.737-4.526-4.024-4.537-6.3 0-.852.237-12.849.151-12.439-.3 1.51 2.446 7.239 4.31 6.16 5.991-3.463 15.733-3.441 21.757 0 1.519.874 3.707-6.581 4.472-5.5 0 0-.151 10.1 0 10.939.442 2.555-1.024 5.187-4.386 7.14z" transform="translate(19.736 17.22)" fill="url(#n)"/><ellipse data-name="Эллипс 209" cx="8.9" cy="15.388" rx="8.9" ry="15.388" transform="rotate(-89.71 419.037 -65.714)" fill="#68e1fd"/><path data-name="Контур 1347" d="M513.481 351.494c.14 2.373-1.347 4.768-4.472 6.581-5.991 3.452-15.733 3.431-21.757 0-3.157-1.834-4.666-4.229-4.526-6.613.194 2.158 1.7 4.24 4.526 5.858 6.024 3.485 15.765 3.506 21.757 0 2.827-1.618 4.3-3.7 4.472-5.826z" fill="#68e1fd"/><ellipse data-name="Эллипс 210" cx="6.861" cy="11.864" rx="6.861" ry="11.864" transform="rotate(-89.71 419.772 -68.614)" fill="url(#o)"/><path data-name="Контур 1348" d="M448.309 420.787c-5.991 3.463-15.733 3.441-21.767 0-3.007-1.748-4.526-4.024-4.537-6.3 0-.852.237-12.849.162-12.439-.3 1.51 2.446 7.239 4.31 6.16 5.991-3.463 15.733-3.441 21.767 0 1.519.874 3.707-6.592 4.461-5.5 0 0-.14 10.1 0 10.939.443 2.555-1.023 5.187-4.396 7.14z" fill="#68e1fd"/><path data-name="Контур 1349" d="M432.944 399.31c-5.991 3.463-15.733 3.441-21.767 0-3.007-1.748-4.526-4.024-4.537-6.3 0-.852.237-12.849.162-12.439-.3 1.51 2.446 7.239 4.31 6.16 5.991-3.463 15.733-3.441 21.767 0 1.519.874 3.707-6.592 4.461-5.5 0 0-.14 10.1 0 10.939.443 2.555-1.023 5.187-4.396 7.14z" transform="translate(15.365 21.477)" fill="url(#p)"/><ellipse data-name="Эллипс 211" cx="8.9" cy="15.388" rx="8.9" ry="15.388" transform="rotate(-89.71 417.97 -6.07)" fill="#68e1fd"/><path data-name="Контур 1350" d="M452.766 409.761c.14 2.363-1.347 4.768-4.461 6.581-5.991 3.452-15.733 3.431-21.767 0-3.147-1.823-4.655-4.218-4.515-6.613.194 2.158 1.7 4.251 4.515 5.869 6.035 3.485 15.776 3.506 21.767 0 2.784-1.629 4.261-3.711 4.461-5.837z" fill="#68e1fd"/><ellipse data-name="Эллипс 212" cx="6.861" cy="11.864" rx="6.861" ry="11.864" transform="rotate(-89.71 418.706 -8.97)" fill="url(#o)"/><path data-name="Контур 1351" d="M238.221 174.587c-5.991 3.463-15.733 3.441-21.757 0-3.017-1.737-4.537-4.024-4.547-6.3 0-.852.248-12.849.162-12.439-.3 1.51 2.446 7.239 4.31 6.16 5.991-3.463 15.733-3.441 21.767 0 1.519.874 3.707-6.581 4.461-5.5 0 0-.14 10.1 0 10.939.443 2.555-1.023 5.187-4.396 7.14z" fill="#68e1fd"/><path data-name="Контур 1352" d="M237.984 171.1c-5.991 3.463-15.733 3.441-21.757 0-3.017-1.737-4.537-4.024-4.547-6.3 0-.852.248-12.849.162-12.439-.3 1.51 2.446 7.239 4.31 6.16 5.991-3.463 15.733-3.441 21.767 0 1.519.874 3.707-6.581 4.461-5.5 0 0-.14 10.1 0 10.939.443 2.555-1.023 5.187-4.396 7.14z" transform="translate(.237 3.487)" fill="url(#q)"/><ellipse data-name="Эллипс 213" cx="8.9" cy="15.388" rx="8.9" ry="15.388" transform="rotate(-89.71 189.217 -23.6)" fill="#68e1fd"/><path data-name="Контур 1353" d="M242.682 163.561c.14 2.373-1.347 4.768-4.461 6.581-5.991 3.452-15.733 3.431-21.767 0-3.147-1.834-4.655-4.229-4.515-6.613.194 2.158 1.7 4.24 4.515 5.858 6.035 3.485 15.776 3.506 21.767.054 2.78-1.672 4.289-3.754 4.461-5.88z" fill="#68e1fd"/><ellipse data-name="Эллипс 214" cx="6.861" cy="11.864" rx="6.861" ry="11.864" transform="rotate(-89.71 189.952 -26.5)" fill="url(#o)"/><path data-name="Контур 1354" d="M188.382 254.216c-5.991 3.463-15.744 3.441-21.767 0-3.017-1.737-4.526-4.013-4.547-6.29 0-.863.248-12.86.162-12.45-.3 1.51 2.446 7.25 4.31 6.16 5.991-3.463 15.733-3.441 21.757 0 1.519.874 3.707-6.581 4.472-5.5 0 0-.151 10.109 0 10.95.441 2.545-.982 5.188-4.387 7.13z" fill="#68e1fd"/><path data-name="Контур 1355" d="M191.735 244.91c-5.991 3.463-15.744 3.441-21.767 0-3.017-1.737-4.526-4.013-4.547-6.29 0-.863.248-12.86.162-12.45-.3 1.51 2.446 7.25 4.31 6.16 5.991-3.463 15.733-3.441 21.757 0 1.519.874 3.707-6.581 4.472-5.5 0 0-.151 10.109 0 10.95.441 2.545-.982 5.188-4.387 7.13z" transform="translate(-3.353 9.306)" fill="url(#r)"/><ellipse data-name="Эллипс 215" cx="8.9" cy="15.388" rx="8.9" ry="15.388" transform="rotate(-89.71 204.304 41.264)" fill="#68e1fd"/><path data-name="Контур 1356" d="M192.865 243.19c.14 2.373-1.347 4.779-4.472 6.581-5.991 3.452-15.733 3.441-21.757 0-3.157-1.823-4.666-4.229-4.526-6.613.194 2.158 1.7 4.24 4.526 5.858 6.024 3.5 15.765 3.506 21.757.054 2.77-1.661 4.267-3.754 4.472-5.88z" fill="#68e1fd"/><ellipse data-name="Эллипс 216" cx="6.861" cy="11.864" rx="6.861" ry="11.864" transform="rotate(-89.71 205.04 38.364)" fill="url(#s)"/><path data-name="Контур 1357" d="M73.834 257.398c-5.981 3.463-15.733 3.452-21.757 0-3.017-1.748-4.526-4.024-4.547-6.3 0-.852.248-12.849.162-12.439-.3 1.51 2.446 7.239 4.31 6.16 5.991-3.463 15.744-3.452 21.767 0 1.519.885 3.707-6.581 4.472-5.491 0 0-.151 10.1 0 10.939.399 2.557-1.034 5.189-4.407 7.131z" fill="#68e1fd"/><path data-name="Контур 1358" d="M85.434 247.86c-5.981 3.463-15.733 3.452-21.757 0-3.017-1.748-4.526-4.024-4.547-6.3 0-.852.248-12.849.162-12.439-.3 1.51 2.446 7.239 4.31 6.16 5.991-3.463 15.744-3.452 21.767 0 1.519.885 3.707-6.581 4.472-5.491 0 0-.151 10.1 0 10.939.399 2.557-1.034 5.189-4.407 7.131z" transform="translate(-11.6 9.538)" fill="url(#t)"/><ellipse data-name="Эллипс 217" cx="8.9" cy="15.388" rx="8.9" ry="15.388" transform="rotate(-89.71 148.641 100.41)" fill="#68e1fd"/><path data-name="Контур 1359" d="M78.305 246.383c.14 2.363-1.358 4.768-4.472 6.57-5.991 3.463-15.733 3.441-21.757 0-3.157-1.823-4.666-4.229-4.526-6.613.194 2.158 1.7 4.251 4.526 5.858 6.024 3.5 15.765 3.506 21.757.054 2.791-1.661 4.289-3.752 4.472-5.869z" fill="#68e1fd"/><ellipse data-name="Эллипс 218" cx="6.861" cy="11.864" rx="6.861" ry="11.864" transform="rotate(-89.71 149.366 97.51)" fill="url(#u)"/></g></svg>