<svg xmlns="http://www.w3.org/2000/svg" width="523.387" height="135.024"><defs><filter id="a" x="0" y="0" width="508.763" height="135.024" filterUnits="userSpaceOnUse"><feOffset dy="3"/><feGaussianBlur stdDeviation="3" result="blur"/><feFlood flood-opacity=".161"/><feComposite operator="in" in2="blur"/><feComposite in="SourceGraphic"/></filter><filter id="b" x="486.703" y="81.023" width="36.684" height="32.78" filterUnits="userSpaceOnUse"><feOffset dy="3"/><feGaussianBlur stdDeviation="3" result="blur-2"/><feFlood flood-color="#0fc468"/><feComposite operator="in" in2="blur-2"/><feComposite in="SourceGraphic"/></filter></defs><g filter="url(#a)" transform="translate(-.001 .003)"><path data-name="Контур 1052" d="M9.66 6.658S122.125 57.182 128.025 48.68s23.149-2.971 61.944 0 37.955 18.221 13.243 24.691-111.139-1.932-108.927 8.274 42.974 15.278 42.974 15.278 23.456 8.309 10.855 21.435c-7.4 7.7 51.015 4.479 66.742-8.192 24.426-4.837 105.358-35.506 122.319-36.795 41.068-3.123-1.638 43.39 53.314 44.987s79.785-20.385 108.755-21.435" fill="none" stroke="#05c48b" stroke-linecap="round" stroke-dasharray="2 3"/></g><g filter="url(#b)" transform="translate(-.001 .003)"><path data-name="Контур 1053" d="M499.54 100.214l10.502-7.128-12.832-.935" fill="none" stroke="#05c48b" stroke-linecap="square" stroke-width="2.008" stroke-dasharray="2"/></g></svg>