<svg xmlns="http://www.w3.org/2000/svg" width="180" height="460"><g fill="#059469"><g data-name="4" transform="translate(147.097 130.593)"><ellipse data-name="Эллипс 148" cx="16.452" cy="16.081" rx="16.452" ry="16.081" opacity=".304"/><ellipse data-name="Эллипс 149" cx="16.452" cy="16.568" rx="16.452" ry="16.568" transform="translate(0 49.703)" opacity=".304"/><ellipse data-name="Эллипс 150" cx="16.452" cy="16.568" rx="16.452" ry="16.568" transform="translate(0 98.432)" opacity=".304"/><ellipse data-name="Эллипс 151" cx="16.452" cy="16.568" rx="16.452" ry="16.568" transform="translate(0 148.136)" opacity=".304"/><ellipse data-name="Эллипс 152" cx="16.452" cy="16.081" rx="16.452" ry="16.081" transform="translate(0 197.839)" opacity=".304"/><ellipse data-name="Эллипс 153" cx="16.452" cy="16.081" rx="16.452" ry="16.081" transform="translate(0 247.543)" opacity=".304"/><ellipse data-name="Эллипс 154" cx="16.452" cy="16.568" rx="16.452" ry="16.568" transform="translate(0 296.271)" opacity=".304"/></g><g data-name="3" transform="translate(98.71 80.89)"><ellipse data-name="Эллипс 148" cx="15.968" cy="16.568" rx="15.968" ry="16.568" opacity=".304"/><ellipse data-name="Эллипс 149" cx="15.968" cy="16.081" rx="15.968" ry="16.081" transform="translate(0 49.703)" opacity=".304"/><ellipse data-name="Эллипс 150" cx="15.968" cy="16.568" rx="15.968" ry="16.568" transform="translate(0 99.407)" opacity=".304"/><ellipse data-name="Эллипс 151" cx="15.968" cy="16.568" rx="15.968" ry="16.568" transform="translate(0 148.136)" opacity=".304"/><ellipse data-name="Эллипс 152" cx="15.968" cy="16.568" rx="15.968" ry="16.568" transform="translate(0 197.839)" opacity=".304"/><ellipse data-name="Эллипс 153" cx="15.968" cy="16.081" rx="15.968" ry="16.081" transform="translate(0 247.543)" opacity=".304"/><ellipse data-name="Эллипс 154" cx="15.968" cy="16.081" rx="15.968" ry="16.081" transform="translate(0 297.246)" opacity=".304"/></g><g data-name="2" transform="translate(49.355 48.729)"><ellipse data-name="Эллипс 148" cx="15.968" cy="16.081" rx="15.968" ry="16.081" opacity=".304"/><ellipse data-name="Эллипс 149" cx="15.968" cy="16.568" rx="15.968" ry="16.568" transform="translate(0 48.729)" opacity=".304"/><ellipse data-name="Эллипс 150" cx="15.968" cy="16.568" rx="15.968" ry="16.568" transform="translate(0 98.432)" opacity=".304"/><ellipse data-name="Эллипс 151" cx="15.968" cy="16.568" rx="15.968" ry="16.568" transform="translate(0 147.161)" opacity=".304"/><ellipse data-name="Эллипс 152" cx="15.968" cy="16.081" rx="15.968" ry="16.081" transform="translate(0 197.839)" opacity=".304"/><ellipse data-name="Эллипс 153" cx="15.968" cy="16.568" rx="15.968" ry="16.568" transform="translate(0 246.568)" opacity=".304"/><ellipse data-name="Эллипс 154" cx="15.968" cy="16.568" rx="15.968" ry="16.568" transform="translate(0 296.271)" opacity=".304"/></g><g data-name="1"><ellipse data-name="Эллипс 148" cx="16.452" cy="16.568" rx="16.452" ry="16.568" opacity=".304"/><ellipse data-name="Эллипс 149" cx="16.452" cy="16.081" rx="16.452" ry="16.081" transform="translate(0 49.703)" opacity=".304"/><ellipse data-name="Эллипс 150" cx="16.452" cy="16.081" rx="16.452" ry="16.081" transform="translate(0 99.407)" opacity=".304"/><ellipse data-name="Эллипс 151" cx="16.452" cy="16.568" rx="16.452" ry="16.568" transform="translate(0 148.136)" opacity=".304"/><ellipse data-name="Эллипс 152" cx="16.452" cy="16.568" rx="16.452" ry="16.568" transform="translate(0 197.839)" opacity=".304"/><ellipse data-name="Эллипс 153" cx="16.452" cy="16.568" rx="16.452" ry="16.568" transform="translate(0 246.568)" opacity=".304"/><ellipse data-name="Эллипс 154" cx="16.452" cy="16.081" rx="16.452" ry="16.081" transform="translate(0 297.246)" opacity=".304"/></g></g></svg>