<svg xmlns="http://www.w3.org/2000/svg" width="186" height="472"><g fill="#7d97f3"><g data-name="4" transform="translate(152.477 134.025)"><ellipse data-name="Ellipse 148" cx="17" cy="16.5" rx="17" ry="16.5" transform="translate(-.477 -.025)" opacity=".304"/><circle data-name="Ellipse 149" cx="17" cy="17" r="17" transform="translate(-.477 50.975)" opacity=".304"/><circle data-name="Ellipse 150" cx="17" cy="17" r="17" transform="translate(-.477 100.975)" opacity=".304"/><circle data-name="Ellipse 151" cx="17" cy="17" r="17" transform="translate(-.477 151.975)" opacity=".304"/><ellipse data-name="Ellipse 152" cx="17" cy="16.5" rx="17" ry="16.5" transform="translate(-.477 202.975)" opacity=".304"/><ellipse data-name="Ellipse 153" cx="17" cy="16.5" rx="17" ry="16.5" transform="translate(-.477 253.975)" opacity=".304"/><circle data-name="Ellipse 154" cx="17" cy="17" r="17" transform="translate(-.477 303.975)" opacity=".304"/></g><g data-name="3" transform="translate(101.975 82.551)"><ellipse data-name="Ellipse 148" cx="16.5" cy="17" rx="16.5" ry="17" transform="translate(.025 .449)" opacity=".304"/><circle data-name="Ellipse 149" cx="16.5" cy="16.5" r="16.5" transform="translate(.025 51.449)" opacity=".304"/><ellipse data-name="Ellipse 150" cx="16.5" cy="17" rx="16.5" ry="17" transform="translate(.025 102.449)" opacity=".304"/><ellipse data-name="Ellipse 151" cx="16.5" cy="17" rx="16.5" ry="17" transform="translate(.025 152.449)" opacity=".304"/><ellipse data-name="Ellipse 152" cx="16.5" cy="17" rx="16.5" ry="17" transform="translate(.025 203.449)" opacity=".304"/><circle data-name="Ellipse 153" cx="16.5" cy="16.5" r="16.5" transform="translate(.025 254.449)" opacity=".304"/><circle data-name="Ellipse 154" cx="16.5" cy="16.5" r="16.5" transform="translate(.025 305.449)" opacity=".304"/></g><g data-name="2" transform="translate(50.502 49.531)"><circle data-name="Ellipse 148" cx="16.5" cy="16.5" r="16.5" transform="translate(.498 .469)" opacity=".304"/><ellipse data-name="Ellipse 149" cx="16.5" cy="17" rx="16.5" ry="17" transform="translate(.498 50.469)" opacity=".304"/><ellipse data-name="Ellipse 150" cx="16.5" cy="17" rx="16.5" ry="17" transform="translate(.498 101.469)" opacity=".304"/><ellipse data-name="Ellipse 151" cx="16.5" cy="17" rx="16.5" ry="17" transform="translate(.498 151.469)" opacity=".304"/><circle data-name="Ellipse 152" cx="16.5" cy="16.5" r="16.5" transform="translate(.498 203.469)" opacity=".304"/><ellipse data-name="Ellipse 153" cx="16.5" cy="17" rx="16.5" ry="17" transform="translate(.498 253.469)" opacity=".304"/><ellipse data-name="Ellipse 154" cx="16.5" cy="17" rx="16.5" ry="17" transform="translate(.498 304.469)" opacity=".304"/></g><g data-name="1"><circle data-name="Ellipse 148" cx="17" cy="17" r="17" opacity=".304"/><ellipse data-name="Ellipse 149" cx="17" cy="16.5" rx="17" ry="16.5" transform="translate(0 51)" opacity=".304"/><ellipse data-name="Ellipse 150" cx="17" cy="16.5" rx="17" ry="16.5" transform="translate(0 102)" opacity=".304"/><circle data-name="Ellipse 151" cx="17" cy="17" r="17" transform="translate(0 152)" opacity=".304"/><circle data-name="Ellipse 152" cx="17" cy="17" r="17" transform="translate(0 203)" opacity=".304"/><circle data-name="Ellipse 153" cx="17" cy="17" r="17" transform="translate(0 253)" opacity=".304"/><ellipse data-name="Ellipse 154" cx="17" cy="16.5" rx="17" ry="16.5" transform="translate(0 305)" opacity=".304"/></g></g></svg>