<svg xmlns="http://www.w3.org/2000/svg" width="208" height="168"><g data-name="1"><path data-name="Контур 1627" d="M207.9 121.867c-.561 5.995-3.35 12.1-6.265 18.609-5.343 11.938-14.325 23.013-27.722 26.574-19.187 5.1-73.033-12.389-103.737-3.593-61.758 17.689-73.068-29.8-69.617-42.632 2.4-8.941 5.372-17.909 5.451-27.247.111-13.207-5.489-25.781-3.906-38.977 1.541-12.836 4.959-25.892 12.867-36.492C22.46 8.074 35.032 3.588 47.216 1.527A111.542 111.542 0 01112.8 10.49c10.226 4.823 19.832 11.388 26.478 20.365 6.813 9.2 10.149 20.368 15.629 30.38a81.693 81.693 0 0024.257 27.213c7.395 5.26 15.76 9.387 22.023 15.9 5.673 5.911 7.258 11.663 6.713 17.519z" fill="#68e1fd" opacity=".18" style="isolation:isolate"/><g data-name="Search engine _Two Color" transform="translate(-44.104 -33.026)"><path data-name="Контур 1584" d="M208.078 60.588c21.795 7.045 38.693 26.851 43.089 51.628 3.7 20.874-2.442 46.545-38.252 58.459-36.551 12.168-138.76 18.012-157.766-15.824s-15-77.285 23.969-92.682c27.319-10.794 86.392-15.35 128.96-1.581z" fill="#e6e6e6" opacity=".3"/><path data-name="Контур 1585" d="M62.08 149.114s6.938-32.635 24.39-32.635 26.738 51.3-15.717 56.878z" fill="#f4a28c"/><path data-name="Контур 1586" d="M62.08 149.114s6.938-32.635 24.39-32.635 26.738 51.3-15.717 56.878z" opacity=".1"/><path data-name="Прямоугольник 280" fill="#68e1fd" d="M77.357 62.949h149.894v96.311H77.357z"/><path data-name="Прямоугольник 281" fill="#fff" opacity=".46" d="M77.357 62.949h149.894v96.305H77.357z"/><path data-name="Прямоугольник 282" fill="#fff" d="M89.539 71.542h125.524v77.572H89.539z"/><path data-name="Контур 1587" d="M102.11 137.486c-2.855 6.611-11.541 10.634-11.674 19.346v2.448H77.35v-3.676l20.187-29.173s7.432 4.431 4.573 11.055z" opacity=".1"/><path data-name="Контур 1588" d="M75.756 136.992s13.469-13.776 19.286-12.555c4.8 1.014 4.81 10.567-5.65 18.526a18.532 18.532 0 00-7.338 13.536 19.572 19.572 0 01-6.278 13.729c-9.493 8.406-16.538 1.087-15.617-10.26s1.514-14.711 15.597-22.976z" fill="#f4a28c"/><path data-name="Контур 1589" d="M83.875 182.743l.74-10.254-25.717-7.791-5.4 18.045z" fill="#68e1fd"/><path data-name="Контур 1590" d="M83.875 182.747l.74-10.254-12.281-3.726-1.775 13.98z" opacity=".1"/><circle data-name="Эллипс 248" cx="2.035" cy="2.035" r="2.035" transform="translate(81.073 121.809)" opacity=".1"/><rect data-name="Прямоугольник 283" width="21.501" height="1.848" rx=".924" transform="rotate(-90 100.12 17.713)" opacity=".1"/><circle data-name="Эллипс 249" cx="3.009" cy="3.009" r="3.009" transform="translate(218.845 108.093)" opacity=".1"/><rect data-name="Прямоугольник 284" width="34.396" height="7.345" rx="3.672" transform="translate(135.102 132.102)" fill="#e6e6e6"/><rect data-name="Прямоугольник 285" width="109.547" height="21.868" rx="10.934" transform="translate(101.146 97.739)" fill="#e6e6e6"/><path data-name="Контур 1591" d="M162.048 116.439c-1.521-1.141-3.029-2.295-4.43-3.576l-6.591 5.677-17.1-20.987-32.947 31.875 5.1 5.3 27.212-26.324 16.818 20.614 13.656-11.768a4.316 4.316 0 01-1.718-.811z" fill="#68e1fd"/><path data-name="Контур 1592" d="M200.546 159.254l-20.28-.133c-3.336-8.539-2-13.816-4.116-22.375-4.123-16.6-15.5-2.628-25.177-18.986-3.569-6-3.776-13.749-.781-20.554 1.534-3.482 1.748-3.723 5.677-5.083a8.425 8.425 0 013.669-.467q-.881 3.7-1.755 7.4a35.894 35.894 0 00-1.294 8.632 11.591 11.591 0 002.982 8.005c2.048 2.075 5.17 3.029 8.152 3.336a10.16 10.16 0 005.49-.667 13.387 13.387 0 006.671-8.539 23.529 23.529 0 00.6-9.006c-.347-3.242-1.468-5.824-4.236-7.665a16.438 16.438 0 00-11.145-2.573 5.637 5.637 0 014.483-4.223 13.909 13.909 0 017.945 1.087c.974.394 8.179 3.109 8.272 3.883l1.641 13.1a3.429 3.429 0 01-.967 3.262c-2.809 3.649-5.59 7.3-8.379 10.967l7.125 16.244z" opacity=".12"/><path data-name="Контур 1593" d="M155.63 109.22l.554-.173v-.794c0-.087-.147-.254-.167-.24-.34.14-.514-.1-.474-.314s.367-.34.58-.514c.04-.033.127 0 .233-.033l-.08-.414c.58-.547.807-.954.667-1.174-.34-.474-1.067-.761-1.394-.554-.507.334-.507.594-.14 1.288l-1.454 2a.62.62 0 00-.347.16c-.06.073.1.314.153.474l.227.614 2.668.42z" fill="#68e1fd"/><path data-name="Контур 1594" d="M158.452 108.786v-1.014a6.506 6.506 0 01-.667-.667c-.347-.4-.714-.12-1.014 0s-.26.414.047.6c.053 0 .073.14.073.213 0 .254-.067.667.047.72a6.831 6.831 0 001.394.507c.087 0 .227-.173.34-.267z" fill="#68e1fd"/><path data-name="Контур 1595" d="M189.865 129.462a1.6 1.6 0 00-2.035-.667c-.8.4-1.581.854-2.462 1.334l1.221.14c.267-.314.427-.667.667-.781a4.437 4.437 0 011.528-.507c.334-.04.681.281 1.081.481z" fill="#68e1fd"/><path data-name="Контур 1596" d="M185.463 130.802l-1.021.093.507-.587c-.967-.26-2 .113-2 .714.886-.074 1.74.373 2.514-.22z" fill="#68e1fd"/><path data-name="Контур 1597" d="M188.412 105.378c.36 0 .667.133.814 0 .36-.314.594-.06.907.047a3.689 3.689 0 001.014 0c-.667-1.094-.874-1.154-1.728-.667l-.173.093z" fill="#68e1fd"/><path data-name="Прямоугольник 286" fill="#ffd200" d="M187.609 133.367l-5.462 2.327-6.779-15.908 5.463-2.328z"/><path data-name="Прямоугольник 287" opacity=".08" d="M187.609 133.367l-5.462 2.327-6.779-15.908 5.463-2.328z"/><path data-name="Прямоугольник 288" fill="#24285b" d="M195.84 148.788l-8.408 3.582-8.708-20.437 8.408-3.583z"/><path data-name="Контур 1598" d="M189.946 95.331c-.067-.153-.133-.307-.207-.46a19.466 19.466 0 10-10.074 26.021 19.684 19.684 0 002.155-1.081 19.473 19.473 0 008.126-24.48zm-12.488 20.3a13.789 13.789 0 01-16.965-5.21 13.408 13.408 0 01-1.094-2.055 13.776 13.776 0 0125.35-10.794 12.965 12.965 0 01.467 1.254 13.769 13.769 0 01-7.759 16.8z" fill="#ffd200"/><path data-name="Контур 1599" d="M215.303 161.489s-4.737-37.465-18.8-38.733-6.431 21.875-13.342 20.827-8.346 15.2 17.265 26.158z" fill="#f4a28c"/><path data-name="Контур 1600" d="M233.659 182.746l-18.079-25-12.4 6.891-8.1 4.5 4.73 13.6z" fill="#68e1fd"/><path data-name="Контур 1601" d="M209.405 73.403l-5.877 18.539-4.47-5.1-9.34 8.005-4.59 3.956-19.153 16.5a13.656 13.656 0 01-5.537-4.91l20.641-17.792 4.363-3.763 8.766-7.552-4.443-5.07z" fill="#68e1fd"/><path data-name="Контур 1602" d="M212.034 182.763a3255.967 3255.967 0 01-8.846-18.105l-8.1 4.5 4.73 13.6z" opacity=".12"/><path data-name="Контур 1603" d="M104.329 85.898l1.688-.107a1.261 1.261 0 00.22.627.941.941 0 00.781.347.861.861 0 00.587-.18.514.514 0 00.207-.407.527.527 0 00-.193-.4 2.282 2.282 0 00-.907-.334 3.822 3.822 0 01-1.661-.667 1.408 1.408 0 01-.5-1.107 1.474 1.474 0 01.254-.834 1.761 1.761 0 01.767-.62 3.7 3.7 0 011.414-.22 2.889 2.889 0 011.674.407 1.788 1.788 0 01.667 1.334l-1.674.093a.847.847 0 00-.28-.56.867.867 0 00-.587-.18.667.667 0 00-.46.133.4.4 0 00-.16.32.334.334 0 00.127.247 1.474 1.474 0 00.594.207 7.672 7.672 0 011.668.507 1.734 1.734 0 01.727.667 1.588 1.588 0 01.233.847 1.828 1.828 0 01-.307 1.014 1.941 1.941 0 01-.854.707 3.416 3.416 0 01-1.381.24 2.809 2.809 0 01-2-.567 2.235 2.235 0 01-.644-1.514z" fill="#e6e6e6"/><path data-name="Контур 1604" d="M110.419 82.062h4.743v1.227h-2.969v.907h2.755v1.167h-2.755v1.134h3.055v1.294h-4.83z" fill="#e6e6e6"/><path data-name="Контур 1605" d="M119.725 86.845h-2l-.28.947h-1.809l2.155-5.731h1.928l2.155 5.731h-1.855zm-.367-1.234l-.607-2.061-.627 2.061z" fill="#e6e6e6"/><path data-name="Контур 1606" d="M122.454 87.793v-5.73h2.969a4.289 4.289 0 011.254.14 1.334 1.334 0 01.7.52 1.588 1.588 0 01.267.934 1.561 1.561 0 01-.207.821 1.534 1.534 0 01-.554.56 2.108 2.108 0 01-.627.227 1.828 1.828 0 01.467.213 2.221 2.221 0 01.28.3 2.055 2.055 0 01.247.354l.861 1.661h-2l-.967-1.761a1.448 1.448 0 00-.32-.447.754.754 0 00-.434-.127h-.16v2.322zm1.775-3.409h.747a2.668 2.668 0 00.474-.08.467.467 0 00.287-.173.554.554 0 00.107-.334.52.52 0 00-.173-.427 1.067 1.067 0 00-.667-.147h-.781z" fill="#e6e6e6"/><path data-name="Контур 1607" d="M132.327 85.451l1.548.467a2.815 2.815 0 01-.487 1.087 2.162 2.162 0 01-.834.667 3.069 3.069 0 01-1.274.227 3.669 3.669 0 01-1.521-.274 2.408 2.408 0 01-1-.927 3.229 3.229 0 01-.427-1.748 3 3 0 01.754-2.188 3.462 3.462 0 013.843-.327 2.568 2.568 0 01.921 1.334l-1.561.347a1.421 1.421 0 00-.173-.387.987.987 0 00-.36-.307 1.061 1.061 0 00-.48-.113 1.034 1.034 0 00-.927.487 2.068 2.068 0 00-.24 1.127 2.162 2.162 0 00.287 1.334 1.141 1.141 0 001.581.067 1.8 1.8 0 00.354-.874z" fill="#e6e6e6"/><path data-name="Контур 1608" d="M134.762 82.062h1.768v2h1.932v-2h1.781v5.731h-1.781v-2.315h-1.935v2.315h-1.765z" fill="#e6e6e6"/></g></g></svg>