<svg xmlns="http://www.w3.org/2000/svg" width="208.001" height="168"><g data-name="4"><path data-name="Контур 1688" d="M207.9 121.867c-.561 5.995-3.35 12.1-6.265 18.609-5.343 11.938-14.325 23.013-27.722 26.574-19.187 5.1-73.033-12.389-103.737-3.593-61.758 17.689-73.068-29.8-69.617-42.632 2.4-8.941 5.372-17.909 5.451-27.247.111-13.207-5.489-25.781-3.906-38.977 1.541-12.836 4.959-25.892 12.867-36.492C22.46 8.074 35.032 3.588 47.216 1.527A111.542 111.542 0 01112.8 10.49c10.226 4.823 19.832 11.388 26.478 20.365 6.813 9.2 10.149 20.368 15.629 30.38a81.693 81.693 0 0024.257 27.213c7.395 5.26 15.76 9.387 22.023 15.9 5.673 5.911 7.258 11.663 6.713 17.519z" fill="#68e1fd" opacity=".18" style="isolation:isolate"/><g data-name="#508_team_work_flatline" transform="translate(-65.947 -42.758)"><ellipse data-name="Эллипс 258" cx="27.195" cy="3.653" rx="27.195" ry="3.653" transform="translate(97.58 201.451)" fill="#e6e7e8"/><ellipse data-name="Эллипс 259" cx="27.195" cy="3.653" rx="27.195" ry="3.653" transform="translate(214.86 201.451)" fill="#e6e7e8"/><path data-name="Контур 1628" d="M123.012 192.736s4.728 14.464 5.565 14.19 17.665-10.015 17.11-11.685-12.241 1.808-12.241 1.808l-2.631-7.788" fill="#fff"/><path data-name="Контур 1629" d="M128.592 207.298a.467.467 0 01-.222-.052c-1.045-.526-4.313-10.241-5.669-14.39a.371.371 0 01.237-.474.378.378 0 01.467.245c2.016 6.165 4.483 12.96 5.239 13.886 2.29-.978 16.621-9.737 16.717-11.189-.2-.593-5.283.148-11.775 2.082a.385.385 0 01-.459-.237l-2.638-7.788a.378.378 0 01.23-.474.385.385 0 01.474.237l2.527 7.41c10.545-3.1 12.152-2.067 12.353-1.482.148.437.452 1.341-8.151 6.8-4.239 2.675-8.677 5.187-9.151 5.357a.467.467 0 01-.179.069z" fill="#231f20"/><path data-name="Контур 1630" d="M103.212 168.536s-9.737.141-10.011.971-3.2 16.3-.556 15.028 6.951-10.018 6.951-10.018l4.868-.741z" fill="#fff"/><path data-name="Контур 1631" d="M92.356 184.971a.837.837 0 01-.548-.207c-1.815-1.615.86-14.82 1.037-15.376.089-.267.363-1.082 10.374-1.223a.408.408 0 01.371.282l1.252 5.224a.393.393 0 01-.052.289.363.363 0 01-.252.163l-4.683.741c-.637 1.282-4.49 8.811-7.04 10.018a1.067 1.067 0 01-.459.089zm1.178-15.286c-.393 1.356-2.5 13.4-1.23 14.524 0 0 .052.052.178 0 2.075-.978 5.595-7.41 6.78-9.841a.348.348 0 01.274-.2l4.446-.741-1.089-4.535c-4.194.093-8.737.393-9.359.793zm0 0z" fill="#231f20"/><path data-name="Контур 1632" d="M158.239 55.423l4.164-2.386s1.171-3.749 2.349-4.654 2.8.326 2.8.326 4.305-3.594 5.343-3.475-.333 1.956-1.393 2.883l-2.223 1.949s1.949 3.972.823 5.535-10.2 6.395-10.2 6.395z" fill="#fff"/><path data-name="Контур 1633" d="M159.892 62.358a.578.578 0 01-.156 0 .393.393 0 01-.207-.252l-1.645-6.565a.363.363 0 01.17-.408l4.038-2.3c.252-.741 1.289-3.824 2.408-4.713a2.611 2.611 0 013.008.156c1.23-1.015 4.365-3.49 5.4-3.379a.741.741 0 01.667.5c.282.9-1.282 2.527-1.845 3.031l-2.016 1.764c.452.978 1.756 4.15.667 5.661s-9.389 6-10.322 6.5a.341.341 0 01-.167.005zm-1.223-6.754l1.482 5.832c2.749-1.482 8.811-4.9 9.633-6.061s-.341-4.105-.852-5.187a.378.378 0 01.089-.445l2.223-1.941a4.852 4.852 0 001.63-2.223c-.571-.052-3.09 1.734-5.1 3.409a.371.371 0 01-.459 0s-1.43-1.06-2.349-.333-1.89 3.468-2.223 4.446a.407.407 0 01-.17.215z" fill="#231f20"/><path data-name="Контур 1634" d="M107.979 79.831c3.26 1.819 50.285-25.631 50.285-25.631l7 7.247-47.61 34.486z" fill="#68e1fd"/><path data-name="Контур 1635" d="M124.016 79.135s-27.973 0-35.183 5.743c-5.343 4.253-6.35 33.908-6.35 33.908l53.412-4.164s3.07-31.263-11.879-35.487z" fill="#68e1fd"/><path data-name="Контур 1636" d="M127.857 96.48a.341.341 0 01-.341-.341V81.593a.341.341 0 11.682 0v14.546a.341.341 0 01-.341.341z" fill="#231f20"/><path data-name="Контур 1637" d="M188.215 157.115c-.459-.363-17.043-2.06-18.073-1.741s-5.187 14.027-5.106 15.2c.133 2.342 9.292-7.04 9.292-7.04l13.886 2.786" fill="#fff"/><path data-name="Контур 1638" d="M165.333 171.303a.54.54 0 01-.222 0 .689.689 0 01-.445-.674c-.052-.874 3.935-15.124 5.372-15.561 1.082-.333 17.784 1.3 18.407 1.808a.371.371 0 01-.422.608c-1.163-.437-16.836-1.949-17.784-1.7-.889.682-4.92 13.672-4.846 14.82.741.23 5.083-3.624 8.655-7.277a.363.363 0 01.341-.1l13.879 2.764a.378.378 0 01.3.437.37.37 0 01-.437.289l-13.686-2.727c-2.329 2.326-7.415 7.313-9.112 7.313z" fill="#231f20"/><path data-name="Контур 1639" d="M249.25 189.906c0 .482 4.513 14.961 5.832 15.191s19.9-5.632 18.37-6.669-9.944-.274-9.944-.274l-4.484-12.042" fill="#fff"/><path data-name="Контур 1640" d="M255.089 205.467h-.074c-1.749-.311-6.128-15.391-6.136-15.561a.372.372 0 11.741-.059c.207 1.312 4.446 14.294 5.565 14.872a60.542 60.542 0 009.2-2.571c5.187-1.727 8.04-2.964 8.685-3.52-1.386-.585-6.358-.4-9.522-.119a.363.363 0 01-.378-.237l-4.446-12.027a.371.371 0 11.689-.259l4.379 11.76c1.652-.133 8.425-.63 9.907.363a.526.526 0 01.207.66c-.766 1.83-17.238 6.698-18.817 6.698z" fill="#231f20"/><path data-name="Контур 1641" d="M229.942 120.954s-7.321 54.916-14.82 53.241-37.5-8.055-37.5-8.055l2.712-11.856s21.348 2.267 24.194 2.475.845-38.3.845-38.3z" fill="#231f20"/><path data-name="Контур 1642" d="M215.447 174.602a2.044 2.044 0 01-.422-.044c-7.41-1.645-37.2-8-37.495-8.055a.385.385 0 01-.237-.163.378.378 0 01-.052-.282l2.712-11.856a.385.385 0 01.4-.289c.215 0 21.378 2.275 24.186 2.475 1.482-.741 1.386-19.852.452-37.917a.341.341 0 01.111-.282.371.371 0 01.3-.1l24.579 2.5a.368.368 0 01.333.415c-.259 1.971-6.506 48.239-13.531 53.145a2.357 2.357 0 01-1.336.453zm-37.4-8.744c3.461.741 30.166 6.425 37.139 7.981a1.482 1.482 0 001.171-.3c6.432-4.5 12.545-47.728 13.168-52.256l-23.779-2.416c.267 5.254 1.7 35.694-.689 38.028a.741.741 0 01-.578.23c-2.623-.193-21.171-2.156-23.875-2.445z" fill="#231f20"/><path data-name="Контур 1643" d="M223.026 124.994l25.757 72.863 14.479-7.766-22.193-69.4z" fill="#231f20"/><path data-name="Контур 1644" d="M248.776 198.228a.356.356 0 01-.133 0 .37.37 0 01-.222-.222l-25.75-72.863a.393.393 0 010-.3.415.415 0 01.245-.185l18.036-4.305a.363.363 0 01.437.252l22.23 69.4a.37.37 0 01-.178.437l-14.487 7.76a.341.341 0 01-.178.022zm-25.265-72.967l25.468 72.07 13.835-7.41-21.993-68.795z" fill="#231f20"/><path data-name="Контур 1645" d="M244.197 92.329l9.018-2.964c-.415-.608-4.965-14.583-10.374-17.243-4.72-3.127-13.442-2.534-23.312-1.845a30.418 30.418 0 00-9.255 1.927c-11.115 4.445-12.716 19.081-12.716 19.081l10.263 3.579s-1.66 19.911-3.223 30.322c0 0 12.508 4.742 40.466.111.007-.048-.815-30.026-.867-32.968z" fill="#68e1fd"/><path data-name="Контур 1646" d="M232.664 75.914l-10.011 22.845-2.453-22.037z" fill="#231f20"/><path data-name="Контур 1647" d="M222.651 99.135h-.052a.37.37 0 01-.311-.326l-2.452-22.049a.4.4 0 01.081-.274.37.37 0 01.259-.133l12.479-.808a.385.385 0 01.326.156.371.371 0 01.037.363l-10 22.845a.378.378 0 01-.37.222zm-2.038-22.038l2.223 20.289 9.248-21.03z" fill="#231f20"/><path data-name="Контур 1648" d="M237.878 47.361a9.633 9.633 0 00-10.2-2.8c-3.172 1.023-6.061 2.794-9.24 3.809s-6.928 1.149-9.559-.9a5.365 5.365 0 006.187 5.187c-.119.741-1.126.852-1.845.7s-1.638-.333-2.082.259a1.482 1.482 0 00-.1 1.319c.541 1.786 2.171 2.964 3.705 4.046 2.223 1.534 4.446 1.853 6.714 2.912 2.4 1.134 4.194 2.7 6.951 3.09a10 10 0 007.114-1.749c1.3-.919 3.935-2.171 3.416-4.142-.252-.934 1.393-2.712 1.482-4.083a10.019 10.019 0 00-2.543-7.648z" fill="#fff"/><path data-name="Контур 1649" d="M229.673 65.426a9.1 9.1 0 01-1.349-.1 13.531 13.531 0 01-4.972-2c-.66-.385-1.349-.741-2.09-1.126a23.223 23.223 0 00-2.5-.971 16.6 16.6 0 01-4.261-1.971c-1.712-1.186-3.29-2.4-3.846-4.239a1.83 1.83 0 01.156-1.652 1.756 1.756 0 011.749-.541 6.076 6.076 0 01-2-1.111 5.469 5.469 0 01-2.053-4.29.363.363 0 01.207-.326.378.378 0 01.385.044c3.12 2.423 7.492 1.393 9.226.837a40.246 40.246 0 004.6-1.823 41.179 41.179 0 014.639-1.912 9.989 9.989 0 0110.589 2.9 10.374 10.374 0 012.638 7.907 6.21 6.21 0 01-.874 2.223c-.348.637-.741 1.363-.645 1.712.5 1.912-1.438 3.164-2.853 4.076-.252.163-.5.319-.7.467a10.559 10.559 0 01-6.046 1.896zM212.126 53.57a.823.823 0 00-.7.259 1.223 1.223 0 00-.037.993c.482 1.608 1.956 2.734 3.557 3.846a15.672 15.672 0 004.083 1.875 26.794 26.794 0 012.579 1.008 23.377 23.377 0 012.145 1.149 12.768 12.768 0 004.705 1.912 9.737 9.737 0 006.847-1.682c.215-.156.467-.319.741-.489 1.3-.837 2.9-1.875 2.534-3.26a3.272 3.272 0 01.741-2.223 5.965 5.965 0 00.726-1.986 9.633 9.633 0 00-2.445-7.329 9.263 9.263 0 00-9.811-2.69 39.534 39.534 0 00-4.557 1.882 43.407 43.407 0 01-4.683 1.927c-3.572 1.141-6.9.941-9.263-.519a4.876 4.876 0 001.741 2.964 4.72 4.72 0 003.957 1.112.37.37 0 01.326.1.341.341 0 01.111.326 1.1 1.1 0 01-.489.741 2.445 2.445 0 01-1.8.237 5.371 5.371 0 00-1.008-.148z" fill="#231f20"/><path data-name="Контур 1650" d="M221.998 69.87l-1.793 7.04s1.993 4.594 6.751 3.705 5.706-4.446 5.713-4.446l.8-7.58.5-4.661a5.312 5.312 0 00.17-1.467c-.3-1.06-1.623-1.638-2.008-2.734a9.07 9.07 0 01.289-6.728c-1.986 1.6-4.268 3.231-6.817 3.06a12.175 12.175 0 001.386-1.749l-4.987 1.778a12.212 12.212 0 01-1.986.474c-.741.141-.452-.326-1.015.578-1.393 2.223-1.586 6.061-1.3 8.618.392 3.633 4.297 4.112 4.297 4.112z" fill="#fff"/><path data-name="Контур 1651" d="M225.731 81.077c-4.068 0-5.854-3.979-5.869-4.016a.348.348 0 010-.245l1.7-6.669a5.23 5.23 0 01-4.216-4.446c-.289-2.6-.1-6.484 1.363-8.855l.037-.067c.348-.556.459-.741.874-.674a.741.741 0 00.348 0 11.96 11.96 0 001.927-.459l4.987-1.786a.37.37 0 01.415.126.378.378 0 010 .43 13.255 13.255 0 01-.867 1.171c2.119-.193 4.061-1.615 5.735-2.964a.37.37 0 01.459 0 .356.356 0 01.111.445 8.736 8.736 0 00-.274 6.462 3.5 3.5 0 00.934 1.26 3.705 3.705 0 011.088 1.54 2.868 2.868 0 01-.082 1.186 2.289 2.289 0 01-.067.385l-1.3 12.241s-.963 3.831-6 4.809a6.787 6.787 0 01-1.303.126zm-5.143-4.2c.341.689 2.223 4.135 6.291 3.349 4.483-.867 5.417-4.179 5.424-4.216l1.29-12.18a3.151 3.151 0 01.074-.452 2.652 2.652 0 00.1-.845 3.031 3.031 0 00-.9-1.215 4.194 4.194 0 01-1.1-1.482 9.514 9.514 0 01-.156-5.765c-1.764 1.326-3.787 2.49-6.039 2.342a.363.363 0 01-.319-.237.378.378 0 01.074-.393c.23-.237.452-.482.659-.741l-3.861 1.378a11.528 11.528 0 01-1.986.482 1.845 1.845 0 01-.578 0l-.2.319-.037.059c-1.275 2.075-1.549 5.706-1.26 8.388.363 3.327 3.838 3.831 3.987 3.846a.378.378 0 01.259.163.356.356 0 01.052.3z" fill="#231f20"/><path data-name="Контур 1652" d="M221.068 73.577a5.076 5.076 0 004.594-1.156c2.164-1.9 2.082-3.586 2.082-3.586a7.84 7.84 0 01-5.728 1.037z" fill="#231f20"/><path data-name="Контур 1653" d="M222.297 74.103a4.691 4.691 0 01-1.3-.163.371.371 0 01-.252-.445l.941-3.705a.371.371 0 01.452-.267 7.558 7.558 0 005.432-1.008.363.363 0 01.571.289c0 .074.067 1.882-2.223 3.883a5.432 5.432 0 01-3.624 1.415zm-.741-.793a4.742 4.742 0 003.9-1.156 5.78 5.78 0 001.83-2.608 7.936 7.936 0 01-4.965.793z" fill="#231f20"/><path data-name="Контур 1654" d="M224.974 58.802s-2.757 3.468-2.223 4.157 2.223.393 2.223.393" fill="#fff"/><path data-name="Контур 1655" d="M224.179 63.788a2.223 2.223 0 01-1.727-.585c-.585-.741.889-2.964 2.223-4.616a.363.363 0 01.519-.059.37.37 0 01.059.519c-1.282 1.615-2.319 3.357-2.223 3.705.282.363 1.363.319 1.83.237a.378.378 0 01.43.3.37.37 0 01-.3.43 6.046 6.046 0 01-.808.067z" fill="#231f20"/><ellipse data-name="Эллипс 260" cx=".608" cy=".86" rx=".608" ry=".86" transform="rotate(-.24 13942.454 -54239.849)" fill="#231f20"/><ellipse data-name="Эллипс 261" cx=".86" cy=".608" rx=".86" ry=".608" transform="rotate(-73.11 150.474 -119.79)" fill="#231f20"/><path data-name="Контур 1656" d="M224.44 66.538a9.381 9.381 0 01-5.106-1.786.37.37 0 11.452-.585c.17.133 4.216 3.2 7.714.608a.371.371 0 11.437.593 5.758 5.758 0 01-3.497 1.17z" fill="#231f20"/><path data-name="Контур 1657" d="M232.071 61.826a2.964 2.964 0 012.135-.845 2.067 2.067 0 011.823 1.289 2.623 2.623 0 01-.682 2.453 4.861 4.861 0 01-3.572 1.66" fill="#fff"/><path data-name="Контур 1658" d="M231.773 66.768a.371.371 0 01-.37-.37.363.363 0 01.363-.37 4.446 4.446 0 003.297-1.533 2.26 2.26 0 00.608-2.09 1.682 1.682 0 00-1.482-1.037 2.549 2.549 0 00-1.86.741.378.378 0 01-.526 0 .371.371 0 010-.526 3.312 3.312 0 012.416-.926 2.445 2.445 0 012.142 1.534 2.964 2.964 0 01-.741 2.823 5.232 5.232 0 01-3.857 1.781z" fill="#231f20"/><path data-name="Контур 1659" d="M134.838 133.928s8.41 34.531 2.86 36.932-37.132 7.017-37.132 7.017l-1.43-9.959s24.3-5.32 25.624-6.528-8.151-30.552-8.373-30.789 18.451 3.327 18.451 3.327z" fill="#231f20"/><path data-name="Контур 1660" d="M100.566 178.247a.378.378 0 01-.215-.074.371.371 0 01-.148-.245l-1.438-9.959a.371.371 0 01.289-.415c9.359-2.045 24.542-5.609 25.454-6.439.741-1.608-7.618-28.61-8.433-30.322a.363.363 0 010-.378c.17-.326.215-.415 18.844 3.149a.363.363 0 01.289.274c.874 3.564 8.329 34.9 2.653 37.362-5.535 2.4-35.931 6.854-37.221 7.04zm-1.015-10.041l1.334 9.233c3.542-.526 31.545-4.713 36.665-6.936 1.2-.519 2.845-3.668.437-18.962-1.267-8.01-3.112-15.872-3.453-17.31-6.262-1.193-15.25-2.875-17.577-3.223 1.615 4.209 8.381 26.254 8.3 29.863a1.023 1.023 0 01-.252.778c-1.312 1.214-21.771 5.749-25.454 6.557z" fill="#231f20"/><path data-name="Контур 1661" d="M96.046 132.523l26.3 62.119 11.33-2.186-17.215-65.572z" fill="#231f20"/><path data-name="Контур 1662" d="M122.345 195.004a.378.378 0 01-.341-.222l-26.3-62.126a.378.378 0 01.245-.5l20.407-5.632a.363.363 0 01.289 0 .385.385 0 01.17.222l17.19 65.62a.333.333 0 01-.044.289.363.363 0 01-.245.17l-11.3 2.179zM96.558 132.76l26.009 61.452 10.648-2.053-17.043-64.823z" fill="#231f20"/><path data-name="Контур 1663" d="M105.338 51.918a10.819 10.819 0 00-12.864.3 9.4 9.4 0 00-3.389 9.385 8.351 8.351 0 007.684 6.084c3.4.17 6.98-2.742 8.788-5.409 2.182-3.224 3.649-7.693-.219-10.36z" fill="#fff"/><path data-name="Контур 1664" d="M97.053 68.065h-.311a8.692 8.692 0 01-8.029-6.344 9.833 9.833 0 013.527-9.774 11.16 11.16 0 0113.338-.3c4.713 3.223 1.749 8.655.267 10.819-1.826 2.746-5.338 5.599-8.792 5.599zm1.978-17.784a10.167 10.167 0 00-6.328 2.223 9.085 9.085 0 00-3.268 9.011 7.936 7.936 0 007.343 5.8c3.112.141 6.625-2.519 8.47-5.246 1.356-2.008 4.061-6.973-.119-9.841a10.767 10.767 0 00-6.1-1.919z" fill="#231f20"/><path data-name="Контур 1665" d="M98.499 57.564a9.552 9.552 0 00-3.112 8.788 3.8 3.8 0 001.168 2.335c1.312 1.067 3.3.445 4.705-.489a17.984 17.984 0 005.476-6.128c.986-1.719 2.475-5.595-.193-6.55s-6.088.355-8.044 2.044z" fill="#231f20"/><path data-name="Контур 1666" d="M98.232 69.613a2.964 2.964 0 01-1.912-.637 4.053 4.053 0 01-1.3-2.564 9.9 9.9 0 013.231-9.137c2.038-1.756 5.684-3.09 8.418-2.112a2.475 2.475 0 011.556 1.482c.741 2.1-.963 5.231-1.171 5.58a18.244 18.244 0 01-5.587 6.254 6.18 6.18 0 01-3.238 1.134zm6.417-14.027a9.766 9.766 0 00-5.928 2.26 9.166 9.166 0 00-2.964 8.44 3.409 3.409 0 001.037 2.112c1.163.941 2.964.348 4.276-.511a17.5 17.5 0 005.357-6c.66-1.156 1.645-3.5 1.112-4.95a1.7 1.7 0 00-1.112-1.06 5.187 5.187 0 00-1.778-.289zm-6.15 1.978z" fill="#231f20"/><path data-name="Контур 1667" d="M112.207 78.594a21.253 21.253 0 01-1.845 1.593 8.759 8.759 0 01-8.462.215c-6.261-3.223-6.113-10.545-4.817-16.5.526-2.423 2.3-7.477 5.565-4.95-.956-.741 2.964-3.194 3.564-3.423 4.164-1.7 8.588.741 11.026 4.127a32.642 32.642 0 013.646 6.232c.963 2.43-.089 5.765-1.482 7.832a10.678 10.678 0 01-4.313 3.705 24.465 24.465 0 00-2.594.941z" fill="#fff"/><path data-name="Контур 1668" d="M106.005 81.729a9.315 9.315 0 01-4.268-1.03c-5.187-2.668-6.877-8.351-5.017-16.9.252-1.156 1.237-4.994 3.423-5.795a2.5 2.5 0 012.09.207c.6-1.275 3.624-2.964 3.838-3.053 4.5-1.83 9.1.919 11.471 4.253a32.284 32.284 0 013.705 6.306c1.015 2.549-.059 6.024-1.482 8.151a10.982 10.982 0 01-4.446 3.838 7.411 7.411 0 01-1.2.408 5.75 5.75 0 00-1.349.511c-.1.067-.193.133-.282.207a7.816 7.816 0 00-.741.63 7.232 7.232 0 01-1.171.986 8.677 8.677 0 01-4.571 1.281zm-5.061-23.127a1.556 1.556 0 00-.548.1c-1.482.534-2.5 3.164-2.964 5.254-1.778 8.151-.222 13.6 4.624 16.087a8.4 8.4 0 008.1-.193 7.217 7.217 0 001.052-.882 9.585 9.585 0 01.741-.689 3.7 3.7 0 01.347-.248 5.558 5.558 0 011.541-.6 6.944 6.944 0 001.089-.371 10.285 10.285 0 004.17-3.579c1.319-1.993 2.327-5.187 1.415-7.492a31.67 31.67 0 00-3.542-6.121c-2.223-3.1-6.469-5.676-10.589-3.994-.741.3-3.52 2.223-3.483 2.779a.365.365 0 11-.445.578 2.49 2.49 0 00-1.5-.6zm11.263 19.963z" fill="#231f20"/><path data-name="Контур 1669" d="M116.867 64.552s2.453 5.343 1.86 9.633a6.165 6.165 0 01-4.305 5.187l.645 7.414s.37 3.794-4.335 3.616a8.025 8.025 0 01-6.665-4.065l-1.7-13.59s5.009-3.49 4.12-8.351c0 0 6.528 2.512 10.38.156z" fill="#fff"/><path data-name="Контур 1670" d="M111.037 90.776h-.333a8.336 8.336 0 01-6.966-4.26.739.739 0 010-.119l-1.712-13.6a.348.348 0 01.156-.348c.044 0 4.794-3.416 3.964-7.981a.4.4 0 01.126-.356.393.393 0 01.371-.059c.067 0 6.41 2.393 10.055.185a.378.378 0 01.3 0 .363.363 0 01.23.2c.1.222 2.5 5.491 1.9 9.826a6.625 6.625 0 01-4.283 5.409l.622 7.128a3.868 3.868 0 01-.963 2.8 4.505 4.505 0 01-3.46 1.178zm-6.61-4.542a7.6 7.6 0 006.306 3.8 3.979 3.979 0 003.179-.978 3.1 3.1 0 00.741-2.223l-.645-7.41a.378.378 0 01.282-.393 5.743 5.743 0 004.024-4.891c.489-3.49-1.141-7.781-1.667-9.048-3.32 1.7-8.1.408-9.752-.126.385 4.239-3.29 7.3-4.179 7.973z" fill="#231f20"/><path data-name="Контур 1671" d="M104.857 71.562s-2.749-4.95-5.046-1.482 1.778 6.669 4.046 6.195" fill="#fff"/><path data-name="Контур 1672" d="M103.352 76.704a5.039 5.039 0 01-3.838-2.223 3.964 3.964 0 010-4.616 2.586 2.586 0 012.223-1.4c1.875.074 3.4 2.786 3.468 2.9a.371.371 0 01-.652.356c-.378-.682-1.638-2.475-2.845-2.519a1.9 1.9 0 00-1.564 1.067 3.216 3.216 0 000 3.787 4.036 4.036 0 003.653 1.853.38.38 0 01.163.741 2.572 2.572 0 01-.608.054z" fill="#231f20"/><path data-name="Контур 1673" d="M114.296 74.83a6.24 6.24 0 01-1.03-.089.376.376 0 11.126-.741 3.964 3.964 0 002.067-.141c0-.43-1.1-2.023-2.43-3.5a.363.363 0 010-.519.371.371 0 01.526 0c.645.741 2.742 3.134 2.6 4.127a.622.622 0 01-.289.467 3.1 3.1 0 01-1.571.393z" fill="#231f20"/><path data-name="Контур 1674" d="M112.74 77.123a4.853 4.853 0 01-.741-.052 5.439 5.439 0 01-3.4-1.912.371.371 0 01.141-.5.378.378 0 01.5.141 4.861 4.861 0 002.964 1.556 5.139 5.139 0 004.231-1.741.371.371 0 11.519.526 6.121 6.121 0 01-4.216 1.986z" fill="#231f20"/><path data-name="Контур 1675" d="M114.277 79.185a21.911 21.911 0 01-6.247.459s2.964 5.632 6.758 5.269z" fill="#231f20"/><path data-name="Контур 1676" d="M114.442 85.296c-3.779 0-6.617-5.246-6.736-5.476a.378.378 0 010-.393.385.385 0 01.363-.148 21.914 21.914 0 006.106-.459.37.37 0 01.3.067.363.363 0 01.148.259l.511 5.728a.37.37 0 01-.333.408zm-5.717-5.184c.852 1.349 3.068 4.446 5.661 4.446l-.445-4.928a23.831 23.831 0 01-5.217.467z" fill="#231f20"/><ellipse data-name="Эллипс 262" cx=".585" cy="1.023" rx=".585" ry="1.023" transform="rotate(-8.11 539.183 -742.104)" fill="#231f20"/><ellipse data-name="Эллипс 263" cx=".585" cy="1.023" rx=".585" ry="1.023" transform="rotate(-8.11 536.345 -778.967)" fill="#231f20"/><path data-name="Контур 1677" d="M241.017 92.295l-60.644-31.731a3.475 3.475 0 00-5.031 3.705l2.364 13.338L76.113 95.615a2.149 2.149 0 00-1.741 2.5l9.137 51.478a2.149 2.149 0 002.49 1.741l101.6-18.029 2.364 13.338a3.475 3.475 0 005.987 1.727l46.031-50.663a3.483 3.483 0 00-.963-5.409z" fill="#fff"/><path data-name="Контур 1678" d="M85.62 151.739a2.527 2.527 0 01-1.438-.459 2.49 2.49 0 01-1.037-1.623l-9.159-51.486a2.519 2.519 0 012.045-2.92l101.244-17.969-2.3-12.975a3.846 3.846 0 015.565-4.068l60.651 31.737a3.838 3.838 0 011.06 5.987l-46 50.663a3.846 3.846 0 01-6.625-1.919l-2.3-12.975-101.261 17.959a2.26 2.26 0 01-.445.044zm93.13-91.21a3.112 3.112 0 00-1.823.608 3.053 3.053 0 00-1.227 3.044l2.371 13.338a.378.378 0 01-.3.43L76.209 95.978a1.815 1.815 0 00-1.149.741 1.778 1.778 0 00-.333 1.312l9.137 51.478a1.786 1.786 0 002.067 1.445l101.592-18.029a.378.378 0 01.43.3l2.364 13.338a3.1 3.1 0 005.35 1.541L241.7 97.438a3.1 3.1 0 00-.86-4.831l-60.645-31.716a3.075 3.075 0 00-1.445-.363z" fill="#231f20"/><path data-name="Контур 1679" d="M177.096 73.068a41.123 41.123 0 00-2.475-.741 2.69 2.69 0 00-1.6-.059 2.967 2.967 0 00-1.386 1.949 6.471 6.471 0 00-.459 3.705c.5 1.764 2.379 2.734 4.142 3.216a6.2 6.2 0 002.675.237c5.239-.948 2.586-7.136-.897-8.307z" fill="#fff"/><path data-name="Контур 1680" d="M177.259 81.799a7.884 7.884 0 01-2.038-.319c-1.386-.371-3.8-1.319-4.4-3.468a6.685 6.685 0 01.467-3.9 3.142 3.142 0 011.6-2.179 2.964 2.964 0 011.822.055 27.8 27.8 0 012.5.741 6.386 6.386 0 014.076 5.884c-.067.963-.585 2.645-3.231 3.127a4.928 4.928 0 01-.796.059zm-3.661-9.24a1.327 1.327 0 00-.459.074c-.622.23-.926 1.008-1.163 1.719a6.1 6.1 0 00-.459 3.46c.5 1.793 2.653 2.623 3.883 2.964a5.928 5.928 0 002.512.237c1.623-.289 2.527-1.141 2.623-2.453a5.716 5.716 0 00-3.572-5.128c-.8-.267-1.623-.5-2.445-.741a3.653 3.653 0 00-.919-.133z" fill="#231f20"/><path data-name="Контур 1681" d="M85.54 100.096a1.364 1.364 0 00.571-.126c1.89-.823 1.623-4.313 1.786-6.017.089-.956.067-2.112-.741-2.608a5.664 5.664 0 00-6.016.596c-1.652 1.215-2.016 3.512-1.83 5.483.067.785.126 2.527.837 3.016.948.667 2.067-1.171 2.045-1.986v.659a2.6 2.6 0 00.126.9.934.934 0 00.63.615 1.1 1.1 0 001.1-.741 12.307 12.307 0 01.489-1.356.986.986 0 00.17 1.326 1.2 1.2 0 00.83.245z" fill="#fff"/><path data-name="Контур 1682" d="M83.1 101.008a1.134 1.134 0 01-.222 0 1.289 1.289 0 01-.9-.845v-.082a2.5 2.5 0 01-.741.741 1.149 1.149 0 01-1.319-.082c-.778-.541-.9-2.03-.971-3.016v-.267c-.17-1.86 0-4.379 1.986-5.817a6 6 0 016.417-.615c1.03.622 1.023 1.986.934 2.964 0 .311-.044.674-.067 1.067-.074 1.9-.185 4.49-1.941 5.261a1.8 1.8 0 01-.741.156 1.653 1.653 0 01-1.082-.348l-.089-.126a1.534 1.534 0 01-1.264 1.009zm-.548-2.564v.652a2.43 2.43 0 00.1.785.563.563 0 00.363.378c.252.052.541-.237.674-.548a4.1 4.1 0 00.178-.534l.111-.37a1.223 1.223 0 01.259-.541.371.371 0 01.6.422 1.882 1.882 0 00-.133.3.281.281 0 000 .111.66.66 0 00.222.445.815.815 0 00.585.178 1.2 1.2 0 00.43-.089c1.334-.585 1.43-2.912 1.482-4.616a6.362 6.362 0 01.059-1.1c.119-1.23-.067-1.941-.571-2.223a5.317 5.317 0 00-5.6.571c-1.667 1.237-1.838 3.483-1.689 5.187v.274c.059.689.17 2.127.659 2.468a.408.408 0 00.467 0 2.445 2.445 0 001-1.682.371.371 0 01.356-.378.385.385 0 01.385.363z" fill="#231f20"/><path data-name="Контур 1683" d="M251.741 89.541s4.55 21.867-.837 23.29c-7.314 1.971-37.695-5.483-37.695-5.483s-7.929 1.949-9.314-.141 0-5.009.7-5.187 6.669-.593 6.669-.593-4.861-3.579-3.335-3.853 6.958 1.526 6.958 1.526 29.759 2.223 29.485.682-1.652-7.336-1.652-7.336" fill="#fff"/><path data-name="Контур 1684" d="M247.516 113.529c-10.263 0-32.389-5.343-34.279-5.8-1.171.282-8.151 1.86-9.633-.311a4.735 4.735 0 01-.245-4.32c.119-.3.571-1.275 1.178-1.4s4.009-.385 5.743-.526c-1.445-1.119-3.164-2.645-2.964-3.431a.652.652 0 01.585-.489c1.541-.282 6.35 1.282 7.091 1.526 10.433.741 27.2 1.689 29.018.948-.326-1.719-1.593-7.1-1.608-7.158a.38.38 0 01.741-.17c.059.237 1.378 5.839 1.652 7.358a.474.474 0 01-.126.422c-1.2 1.341-23.075-.17-29.751-.667h-.089c-1.482-.5-5.528-1.719-6.743-1.526a14.28 14.28 0 003.461 3.2.378.378 0 01.141.4.385.385 0 01-.333.267c-1.652.126-6.076.482-6.632.585a2.453 2.453 0 00-.741 1.245 3.875 3.875 0 00.282 3.335c.911 1.363 5.928.741 8.892 0a.363.363 0 01.178 0c.3.074 30.329 7.41 37.51 5.491 4.142-1.1 1.815-16.873.571-22.86a.378.378 0 01.741-.148c.474 2.275 4.446 22.23-1.1 23.712a14.243 14.243 0 01-3.54.317z" fill="#231f20"/><path data-name="Линия 79" fill="#231f20" d="M242.744 92.562l-3.357-14.205"/><path data-name="Контур 1685" d="M242.744 92.934a.371.371 0 01-.356-.289l-3.357-14.205a.363.363 0 01.274-.445.378.378 0 01.445.274l3.357 14.205a.371.371 0 01-.274.445z" fill="#231f20"/><path data-name="Контур 1686" d="M165.864 55.149a.348.348 0 01-.282-.148.341.341 0 01.089-.474 1.7 1.7 0 00.741-1.638 5.883 5.883 0 01-.489-1.482.341.341 0 01.622-.237 3.972 3.972 0 01.526 1.482 1.052 1.052 0 00.408.459.333.333 0 00.356-.052c.674-.4 0-2.779-.637-4.253a.333.333 0 01.17-.445.348.348 0 01.452.17c.311.7 1.793 4.253.363 5.106a.978.978 0 01-.978.089.741.741 0 01-.17-.1 2.327 2.327 0 01-.993 1.43.371.371 0 01-.178.093z" fill="#231f20"/><path data-name="Контур 1687" d="M127.878 171.714a.333.333 0 01-.326-.252l-6.61-24.7a.355.355 0 01.682-.2l6.61 24.7a.341.341 0 01-.237.415z" fill="#fff"/></g></g></svg>