<svg xmlns="http://www.w3.org/2000/svg" width="1135.41" height="489.743"><defs><filter id="a" x="959.092" y="123" width="66" height="66" filterUnits="userSpaceOnUse"><feOffset dy="5"/><feGaussianBlur stdDeviation="3" result="blur"/><feFlood flood-color="#223242" flood-opacity=".502"/><feComposite operator="in" in2="blur"/><feComposite in="SourceGraphic"/></filter><filter id="b" x="201.092" y="0" width="66" height="66" filterUnits="userSpaceOnUse"><feOffset dy="5"/><feGaussianBlur stdDeviation="3" result="blur-2"/><feFlood flood-color="#223242" flood-opacity=".502"/><feComposite operator="in" in2="blur-2"/><feComposite in="SourceGraphic"/></filter><filter id="c" x="599.092" y="410" width="66" height="66" filterUnits="userSpaceOnUse"><feOffset dy="5"/><feGaussianBlur stdDeviation="3" result="blur-3"/><feFlood flood-color="#223242" flood-opacity=".502"/><feComposite operator="in" in2="blur-3"/><feComposite in="SourceGraphic"/></filter></defs><g data-name="2"><path data-name="Контур 995" d="M1134.104 93s-6.685 16.159-41.2 33.129-96.871 34.75-96.871 34.75-160.9-43.613-88.969-43.613 14.178 84.917-51.449 83.691-134.239-56.437-211.059-88.594-108.674 6.45-96.219-40.035-225.373-58.792-225.373-58.792-68.26-5.578-118.565 32.733-60.87-2.232-106.109 26.059-140.632 104.732-74.848 87.105-1.886 47.468 28.059 61.48 91.719-5.43 91.719-5.43l159.523-4.473s-35.412 70.616-11.707 120.832 59.864 51.228 106.527 80.031 39.451 24.579 80.125 35.182 118.757 83.67 82.573 7.229 45.5-2.285 94.886-15.234 102.672-36.562 102.672-36.562" fill="none" stroke="#05c48b" stroke-linecap="round" stroke-width="2" stroke-dasharray="10" opacity=".996"/><g data-name="1"><g transform="translate(.002)" filter="url(#a)"><g data-name="Эллипс 119" transform="translate(968.09 127)" fill="#fcfcfc" stroke="rgba(34,50,66,0.15)"><circle cx="24" cy="24" r="24" stroke="none"/><circle cx="24" cy="24" r="23.5" fill="none"/></g></g><text data-name="2" transform="translate(982.092 158)" fill="#223242" font-size="18" font-family="Tahoma" letter-spacing=".05em"><tspan x="0" y="0">02</tspan></text></g><g data-name="1"><g transform="translate(.003)" filter="url(#b)"><circle data-name="Эллипс 119" cx="24" cy="24" r="24" transform="translate(210.09 4)" fill="#fcfcfc"/></g><text data-name="3" transform="translate(224.092 35)" fill="#223242" font-size="18" font-family="Tahoma" letter-spacing=".05em"><tspan x="0" y="0">03</tspan></text></g><g data-name="1"><g transform="translate(.003)" filter="url(#c)"><g data-name="Эллипс 119" transform="translate(608.09 414)" fill="#fcfcfc" stroke="rgba(101,119,131,0.15)"><circle cx="24" cy="24" r="24" stroke="none"/><circle cx="24" cy="24" r="23.5" fill="none"/></g></g><text data-name="4" transform="translate(622.092 445)" fill="#223242" font-size="18" font-family="Tahoma" letter-spacing=".05em"><tspan x="0" y="0">04</tspan></text></g></g></svg>