<svg xmlns="http://www.w3.org/2000/svg" width="208" height="168"><defs><linearGradient id="a" x1="-3.603" y1=".257" x2="6.812" y2=".858" gradientUnits="objectBoundingBox"><stop offset=".01"/><stop offset=".13" stop-opacity=".69"/><stop offset=".25" stop-opacity=".322"/><stop offset="1" stop-opacity="0"/></linearGradient></defs><g data-name="3"><g data-name="Data analyst _Monochromatic" transform="translate(-.02 .004)"><path data-name="Контур 1609" d="M207.92 121.863c-.561 5.995-3.35 12.1-6.265 18.609-5.343 11.938-14.325 23.013-27.722 26.574-19.187 5.1-73.033-12.389-103.737-3.593-61.758 17.689-73.068-29.8-69.617-42.632 2.4-8.941 5.372-17.909 5.451-27.247.111-13.207-5.489-25.781-3.906-38.977 1.541-12.836 4.959-25.892 12.867-36.492C22.48 8.07 35.052 3.584 47.236 1.523a111.542 111.542 0 0165.584 8.963c10.226 4.823 19.832 11.388 26.478 20.365 6.813 9.2 10.149 20.368 15.629 30.38a81.693 81.693 0 0024.257 27.213c7.395 5.26 15.76 9.387 22.023 15.9 5.673 5.911 7.258 11.663 6.713 17.519z" fill="#68e1fd" opacity=".18" style="isolation:isolate"/><path data-name="Контур 1610" d="M185.906 28.802v101.446a6.656 6.656 0 01-6.775 6.536H36.841a6.66 6.66 0 01-6.775-6.536V28.802a6.658 6.658 0 016.775-6.534h142.29a6.9 6.9 0 014.792 1.913 6.415 6.415 0 011.983 4.621z" fill="#68e1fd" opacity=".18" style="isolation:isolate"/><path data-name="Контур 1611" d="M183.818 28.802v101.446a6.635 6.635 0 01-6.734 6.536H35.635a6.638 6.638 0 01-6.735-6.536V28.802a6.637 6.637 0 016.735-6.534H177.08a6.837 6.837 0 014.768 1.91 6.434 6.434 0 011.97 4.624z" fill="#fff"/><rect data-name="Прямоугольник 289" width="54.251" height="39.366" rx="14.29" transform="translate(106.071 38.985)" fill="#68e1fd" opacity=".18" style="isolation:isolate"/><path data-name="Контур 1612" d="M108.568 55.445l8.647-8.047 11.93 14.374 10.437-9.128 4.325 3.716 9.691-12.96 4.922 5.934v26.025h-49.952z" fill="#fff"/><path data-name="Контур 1613" d="M183.819 28.802v.178H28.908v-.178a6.636 6.636 0 016.727-6.534h141.442a6.837 6.837 0 014.768 1.91 6.434 6.434 0 011.974 4.624z" fill="#68e1fd"/><path data-name="Прямоугольник 290" fill="#473f47" d="M61.426 89.025h19.683v63.965H61.426z"/><path data-name="Прямоугольник 291" fill="#473f47" d="M81.603 101.68h19.683v51.31H81.603z"/><path data-name="Прямоугольник 292" fill="#473f47" d="M101.779 114.335h19.683v38.655h-19.683z"/><path data-name="Прямоугольник 293" fill="#473f47" d="M121.956 126.991h19.683v26.002h-19.683z"/><path data-name="Прямоугольник 294" fill="#473f47" d="M142.132 139.644h19.683v13.346h-19.683z"/><path data-name="Контур 1614" d="M49.185 28.698v107.8H35.434a6.536 6.536 0 01-6.534-6.536V28.698z" fill="#d7d9e1"/><path data-name="Контур 1615" d="M97.17 86.349a21.378 21.378 0 01-2.316 3.066 46.362 46.362 0 01-4.254 3.919 56.81 56.81 0 00-2.186 1.945c-.586.556-1.336.939-1.482 1.8-.086.511 0 1.124-.383 1.468a.94.94 0 01-1.031.069 2.161 2.161 0 01-.771-.766 1.317 1.317 0 01-.178-.374 1.021 1.021 0 01.011-.453 4.428 4.428 0 011.192-1.8 12.146 12.146 0 001.165-1.562 8.774 8.774 0 011.007-1.192q1.411-1.593 2.825-3.182a11.008 11.008 0 002.514-3.786 6.055 6.055 0 01.6-1.635 2.982 2.982 0 013.524-.713c1.331.618.303 2.332-.237 3.196z" fill="#ffbbab"/><path data-name="Контур 1616" d="M91.377 84.251s-.736 6.4 0 9.857a27.624 27.624 0 01.572 6.481c-.24.335 0 .828.342 1.053a2.3 2.3 0 001.194.26l1.682.061a.741.741 0 00.559-.144c.217-.24 0-.64-.3-.78s-.638-.151-.914-.319c-.526-.317-.6-1.039-.6-1.653l-.045-2.683a68.266 68.266 0 01.463-11.531 1.284 1.284 0 00.009-.534c-.084-.317-.392-.511-.675-.677a2.763 2.763 0 00-1.012-.419.943.943 0 00-.953.408" fill="#ffbbab"/><path data-name="Контур 1617" d="M100.651 60.658l.944.518c.452.249.976.713 1.443.534a12.814 12.814 0 002.373-1.639q1.176-.834 2.328-1.7a1.96 1.96 0 00.534-.511c.232-.379.235-.942.634-1.138l.226.987 1.247-.629a.865.865 0 01.513-.137c.331.055.476.465.445.8-.1 1.133-1.26 1.493-2.179 1.781a3.713 3.713 0 00-.713.26 2.776 2.776 0 00-.484.367 14.137 14.137 0 00-2.259 2.3 11.639 11.639 0 01-.955 1.21 3.03 3.03 0 01-1.08.958 1.921 1.921 0 01-1.024.037 8.265 8.265 0 01-3.328-1.822c-.105-.082-.221-.217-.153-.333a.3.3 0 01.155-.107 2.4 2.4 0 00.967-.664 1.37 1.37 0 00.366-1.072z" fill="#ffbbab"/><path data-name="Контур 1618" d="M98.189 54.45a1.193 1.193 0 01-.891.611.442.442 0 00-.274.059.346.346 0 00-.066.287l.1 1.259a.356.356 0 01-.342.469c-.458.125-1.022.224-1.345-.125a1.3 1.3 0 01-.262-.693 13.767 13.767 0 01-.258-4.357 3.066 3.066 0 011.247-2.248c.871-.534 3.116-.688 3.028.778a16.326 16.326 0 00-.187 1.773 3.594 3.594 0 01-.75 2.187z" fill="#ffbbab"/><path data-name="Контур 1619" d="M99.124 49.319a1.184 1.184 0 01-.018.8 1.014 1.014 0 01-.664.445c-.657.178-1.365.134-2.015.342a.549.549 0 00-.274.16.592.592 0 00-.1.306 13.234 13.234 0 00.119 3.834 6.16 6.16 0 01-3.641-.039.948.948 0 01-.745-.78 6.755 6.755 0 01.648-5.414 2.7 2.7 0 012.284-1.488c1.607-.214 3.989-.051 4.406 1.834z" fill="#fc682d"/><path data-name="Контур 1620" d="M97.65 70.003c-.093 3.126 1.042 6.057 1.9 9.071a10.759 10.759 0 01.65 4 .758.758 0 010 .11c-4.12 1.186-8.642 1.781-12.63.2a34.193 34.193 0 00.672-6.4 10.981 10.981 0 01.178-2.535 8.979 8.979 0 012.2-3.73 3.876 3.876 0 00.891-1.343 3.727 3.727 0 00.055-1.48 29.176 29.176 0 01-.114-4.862 11.783 11.783 0 011.108-4.227 5.664 5.664 0 011.1-1.637 2.85 2.85 0 011.749-.852 1.892 1.892 0 011.714.8c1 1.548 2.672 1.9 3.891 3.283a.462.462 0 01.141.251.493.493 0 01-.107.289l-1.284 2.042a3.989 3.989 0 01-.451.613c-.153.159-.335.285-.488.444a3.24 3.24 0 00-.7 1.714 27.441 27.441 0 00-.475 4.249z" fill="#68e1fd"/><path data-name="Контур 1621" d="M96.382 101.149l-.417-.134a3.91 3.91 0 00-1.031-.228.357.357 0 00-.178.025.415.415 0 00-.157.178.817.817 0 01-.253.315.853.853 0 01-.7 0 3.131 3.131 0 01-.713-.255c-.219-.123-.408-.3-.634-.406a.461.461 0 00-.408-.03.579.579 0 00-.166.157 1.026 1.026 0 00-.2.342.98.98 0 000 .381.659.659 0 00.094.319.7.7 0 00.534.194l2.034.127c.638.039 1.275.08 1.913.071a4.279 4.279 0 001.042-.111c.046-.012.1-.034.116-.08a.148.148 0 00-.018-.1 1.768 1.768 0 00-1.094-.825" fill="#68e1fd"/><path data-name="Контур 1622" d="M84.726 96.466c.055.2 0 .426.053.631a1.223 1.223 0 00.258.433l.493.609a.844.844 0 00.2.192.826.826 0 00.664-.023.208.208 0 01.178 0 .2.2 0 01.062.116l.285.987a4.95 4.95 0 01.192 1.261.4.4 0 01-.151.119c-.452.228-1.224-.791-1.6-1.122a3.485 3.485 0 01-.819-1.268q-.162-.374-.31-.754a2.4 2.4 0 01-.23-.734.378.378 0 01.208-.342c.111-.068.459-.326.517-.105z" fill="#68e1fd"/><path data-name="Контур 1623" d="M599.137 533.467a2.186 2.186 0 01-1.812-.178 4 4 0 01-1.493-2.872c-.374-2.41-.153-5.027-1.425-7.106a3.442 3.442 0 01-.846-2.017c.08-.773.8-1.3 1.22-1.96a5.456 5.456 0 00.62-2.45c.146-1.591.285-3.185.429-4.776 0 .4 1.762 1.247 2.4 1.87-.153.159-.335.285-.488.444a3.241 3.241 0 00-.7 1.714 27.45 27.45 0 00-.46 4.252c-.093 3.126 1.042 6.057 1.9 9.071a10.7 10.7 0 01.655 4.008z" transform="translate(-498.859 -450.403)" fill="url(#a)"/><path data-name="Контур 1624" d="M129.118 62.168l-11.923-14.367-8.444 7.856-.362-.387 8.854-8.239 11.936 14.38 10.405-9.1 4.284 3.682 9.723-13 5.136 6.194-.408.338-4.706-5.677-9.659 12.921-4.366-3.752z" fill="#68e1fd"/><circle data-name="Эллипс 250" cx="1.08" cy="1.08" r="1.08" transform="translate(115.479 46.367)" fill="#68e1fd"/><circle data-name="Эллипс 251" cx="1.08" cy="1.08" r="1.08" transform="translate(106.712 54.096)" fill="#68e1fd"/><circle data-name="Эллипс 252" cx="1.08" cy="1.08" r="1.08" transform="translate(127.944 60.592)" fill="#68e1fd"/><circle data-name="Эллипс 253" cx="1.08" cy="1.08" r="1.08" transform="translate(138.436 51.57)" fill="#68e1fd"/><circle data-name="Эллипс 254" cx="1.08" cy="1.08" r="1.08" transform="translate(142.861 55.274)" fill="#68e1fd"/><circle data-name="Эллипс 255" cx="1.08" cy="1.08" r="1.08" transform="translate(152.774 42.357)" fill="#68e1fd"/><circle data-name="Эллипс 256" cx="1.08" cy="1.08" r="1.08" transform="translate(157.808 48.272)" fill="#68e1fd"/><path data-name="Прямоугольник 295" fill="#68e1fd" d="M64.144 40.644h15.78v15.78h-15.78z"/><path data-name="Прямоугольник 296" fill="#68e1fd" d="M64.144 64.555h15.78v15.78h-15.78z"/><path data-name="Прямоугольник 297" fill="#fff" d="M66.253 42.998h2.385V54.46h-2.385z"/><path data-name="Прямоугольник 298" fill="#fff" d="M69.991 46.683h2.385v7.767h-2.385z"/><path data-name="Прямоугольник 299" fill="#fff" d="M73.803 49.344h2.385v5.098h-2.385z"/><circle data-name="Эллипс 257" cx="5.294" cy="5.294" r="5.294" transform="translate(66.316 67.689)" fill="none" stroke="#fff" stroke-miterlimit="10" stroke-width="2.97"/><path data-name="Линия 75" fill="none" stroke="#fff" stroke-miterlimit="10" stroke-width="2.97" d="M71.65 67.703v1.441"/><path data-name="Линия 76" fill="none" stroke="#fff" stroke-miterlimit="10" stroke-width="2.97" d="M71.65 76.816v1.441"/><path data-name="Линия 77" fill="none" stroke="#fff" stroke-miterlimit="10" stroke-width="2.97" d="M77.042 72.98h-1.441"/><path data-name="Линия 78" fill="none" stroke="#fff" stroke-miterlimit="10" stroke-width="2.97" d="M67.687 72.98h-1.441"/><path data-name="Контур 1625" d="M71.674 70.473v2.832l2.982 1.343" fill="none" stroke="#fff" stroke-miterlimit="10" stroke-width="2.97"/><path data-name="Прямоугольник 300" fill="#fff" d="M36.316 56.382h10.587v1.047H36.316z"/><path data-name="Прямоугольник 301" fill="#fff" d="M33.807 53.293h13.047v1.333H33.807z"/><path data-name="Прямоугольник 302" fill="#fff" d="M36.316 68.726h10.587v1.047H36.316z"/><path data-name="Прямоугольник 303" fill="#fff" d="M33.807 65.637h13.047v1.333H33.807z"/><path data-name="Прямоугольник 304" fill="#fff" d="M36.316 81.07h10.587v1.047H36.316z"/><path data-name="Прямоугольник 305" fill="#fff" d="M33.807 77.981h13.047v1.333H33.807z"/><path data-name="Прямоугольник 306" fill="#fff" d="M36.316 93.414h10.587v1.047H36.316z"/><path data-name="Прямоугольник 307" fill="#fff" d="M33.807 90.325h13.047v1.333H33.807z"/></g></g></svg>